<?xml version="1.0" encoding="UTF-8" standalone="no"?>
<!DOCTYPE svg PUBLIC "-//W3C//DTD SVG 1.1//EN" "http://www.w3.org/Graphics/SVG/1.1/DTD/svg11.dtd">
<svg version="1.1" xmlns="http://www.w3.org/2000/svg" xmlns:xlink="http://www.w3.org/1999/xlink" preserveAspectRatio="xMidYMid meet" viewBox="-1 0 122 28" width="118" height="24"><defs><path d="M3.89 1.69C2.26 2.12 1.1 3.29 0.69 4.93C-0.2 8.41 -0.24 17.15 0.62 20.9C1.08 22.9 2.42 24.1 4.63 24.47C8.27 25.1 23.63 25.19 28.7 24.62C30.54 24.41 31.22 24.23 32 23.73C33.77 22.57 34.31 20.59 34.5 14.54C34.59 11.75 34.38 7.86 34.05 5.95C33.58 3.13 32.3 1.88 29.47 1.49C26.69 1.11 17.36 0.88 11.65 1.07C7.76 1.19 4.97 1.42 3.89 1.69ZM22.69 12.99C22.69 13.08 15.27 17.38 14.14 17.98C14.12 17.99 14.02 18.04 13.83 18.14L13.83 12.99L13.83 7.85C15.9 9.04 17.05 9.69 17.28 9.83C19.16 10.91 21.16 12.05 21.69 12.36C22.24 12.66 22.69 12.95 22.69 12.99Z" id="bPytBQTg5"></path><path d="M97.94 23.4L99.37 23.4L100.79 23.4C100.88 23.06 100.93 22.86 100.94 22.82C101.15 21.97 101.17 21.96 101.29 22.25C101.69 23.22 103.59 23.89 104.96 23.55C106.07 23.27 106.67 22.5 107.21 20.62C107.44 19.78 107.46 19.28 107.42 15.49C107.4 12.15 107.34 11.15 107.18 10.61C107.06 10.23 106.95 9.84 106.92 9.73C106.89 9.62 106.84 9.5 106.8 9.46C106.76 9.42 106.61 9.22 106.47 9.01C106.13 8.47 105.26 8.11 104.28 8.11C103.21 8.11 102.5 8.43 101.78 9.26C101.74 9.3 101.55 9.52 101.21 9.91L101.21 5.95L101.21 2.02L99.57 2.02L97.94 2.02L97.94 12.71L97.94 23.4ZM103.96 13.18C104.04 15.08 103.96 19.06 103.8 19.79C103.53 21.12 102.57 21.54 101.63 20.75C101.6 20.73 101.46 20.61 101.21 20.4C101.21 17.86 101.21 16.44 101.21 16.16C101.21 13.43 101.26 11.88 101.34 11.83C101.43 11.78 101.45 11.69 101.41 11.63C101.37 11.56 101.55 11.3 101.81 11.03C102.29 10.53 102.75 10.41 103.25 10.68C103.59 10.86 103.89 11.95 103.96 13.18Z" id="d7hJMpGZ6G"></path><path d="M39.86 9.85C39.99 10.31 40.62 12.59 41.77 16.7L41.77 19.98L41.77 23.27L43.47 23.27L45.18 23.27L45.18 19.97L45.18 16.65C46.33 12.58 46.97 10.32 47.1 9.87C48.15 6.13 49.05 2.99 49.09 2.88C49.14 2.72 48.86 2.69 47.4 2.69C47.28 2.69 46.69 2.69 45.64 2.69C45.32 4.13 45.14 4.93 45.11 5.09C44.82 6.42 44.33 8.7 44.02 10.19C43.98 10.37 43.79 11.27 43.46 12.89C43.35 12.33 43.29 12.01 43.28 11.95C43.2 11.44 42.72 9.18 42.23 6.92C41.75 4.66 41.36 2.79 41.36 2.75C41.36 2.72 40.6 2.69 39.66 2.69C38.46 2.69 37.95 2.73 37.95 2.85C37.95 2.94 38.81 6.09 39.86 9.85Z" id="h19Fi0n6YH"></path><path d="M87.61 22.97C88.81 24.19 91.53 23.78 92.5 22.24C92.79 21.78 93.07 21.74 93.02 22.16C93 22.29 93.03 22.62 93.09 22.89C93.09 22.92 93.13 23.1 93.19 23.4L94.54 23.4L95.89 23.4L95.89 15.89L95.89 8.38L94.19 8.38L92.49 8.38L92.49 14.35L92.49 20.32C92.25 20.55 92.12 20.67 92.09 20.7C91.42 21.37 90.62 21.4 90.33 20.75C90.21 20.51 90.17 18.65 90.17 14.4C90.17 14 90.17 11.99 90.17 8.38L88.38 8.38L86.61 8.38L86.65 14.84C86.69 19.64 87.01 22.35 87.61 22.97Z" id="k3jW6twSo"></path><path d="M49.07 9.87C48.39 11.11 48.28 11.72 48.21 15.02C48.11 19.51 48.39 21.1 49.5 22.32C50.34 23.26 50.98 23.47 52.94 23.47C54.24 23.47 54.62 23.42 55.14 23.19C56.39 22.61 57.07 21.55 57.46 19.6C57.71 18.27 57.67 12.9 57.4 11.64C56.98 9.77 56.22 8.74 54.89 8.24C53.94 7.89 52.09 7.88 51.08 8.23C50.11 8.55 49.54 9.03 49.07 9.87ZM54.1 15.82C54.1 19.42 54.08 20.02 53.87 20.47C53.48 21.33 52.56 21.41 52.03 20.6C51.81 20.26 51.79 19.84 51.79 15.82C51.79 12.18 51.83 11.36 51.99 11.02C52.33 10.35 53.05 10.15 53.58 10.57C54.03 10.92 54.1 11.68 54.1 15.82Z" id="bPbVidMom"></path><path d="M109.54 10.41C109.51 10.52 109.39 10.91 109.28 11.29C109.1 11.84 109.06 12.68 109.06 15.89C109.07 19.99 109.09 20.18 109.43 21.01C109.55 21.28 109.62 21.51 109.58 21.51C109.39 21.51 110.45 22.71 110.9 23.03C112.03 23.78 114.36 23.89 115.75 23.27C116.58 22.89 117.55 21.94 117.67 21.37C117.85 20.58 117.97 19.78 117.97 19.36C117.97 19.32 117.97 19.16 117.97 18.87L116.41 18.83L114.84 18.77C114.83 19.09 114.83 19.27 114.82 19.3C114.81 19.59 114.8 19.87 114.77 19.95C114.76 20.02 114.73 20.21 114.73 20.37C114.69 20.83 114.2 21.24 113.67 21.24C112.62 21.24 112.41 20.81 112.38 18.49C112.38 18.39 112.38 17.91 112.37 17.04L115.18 17.04L118 17.04C117.96 15.35 117.94 14.41 117.93 14.23C117.86 11.45 117.84 11.1 117.65 10.65C117.59 10.53 117.52 10.33 117.51 10.21C117.45 9.83 116.47 8.8 115.89 8.49C115.04 8.07 112.75 7.99 111.7 8.36C110.89 8.65 109.7 9.77 109.54 10.41ZM114.66 13.28C114.66 13.39 114.68 13.97 114.72 15.01L113.56 15.01L112.38 15.01C112.38 14.05 112.38 13.52 112.38 13.41C112.38 12.55 112.45 11.6 112.52 11.33C112.77 10.49 113.54 10.15 114.14 10.64C114.54 10.98 114.61 11.3 114.66 13.28Z" id="b1GLMNlFlv"></path><path d="M77.63 5.67L79.27 5.67L80.9 5.67L80.9 14.54L80.9 23.4L82.6 23.4L84.31 23.4L84.31 14.54L84.31 5.67L86.01 5.67L87.72 5.67L87.72 4.25L87.72 2.83L82.67 2.83L77.63 2.83L77.63 4.25L77.63 5.67Z" id="ee4gZd62E"></path><path d="M75.17 8.87C75.17 8.96 75.09 9.05 75 9.08C74.91 9.12 74.76 9.45 74.66 9.81C74.65 9.86 74.6 10.08 74.51 10.48L74.5 9.29L74.49 8.11L72.99 8.11L71.49 8.11L71.49 15.69L71.49 23.27L73.12 23.27L74.77 23.27C74.76 20.56 74.75 19.06 74.75 18.76C74.73 14.29 74.8 13.4 75.21 12.89C75.81 12.15 76.37 11.76 76.82 11.76C77.01 11.76 77.46 11.72 77.81 11.68C77.85 11.67 78.06 11.64 78.44 11.59L78.44 9.79L78.44 7.97C77.81 7.98 77.46 7.98 77.39 7.99C76.8 7.99 76.19 8.04 76.03 8.11C75.63 8.27 75.17 8.68 75.17 8.87Z" id="eDm7AXow"></path><path d="M60.26 22.74C61.54 24.15 64.2 23.69 65.35 21.87C65.36 21.85 65.45 21.72 65.59 21.48C65.64 21.72 65.67 21.85 65.67 21.87C65.72 22.08 65.78 22.48 65.84 22.75C65.84 22.79 65.87 22.96 65.92 23.27L67.27 23.27L68.62 23.27L68.62 15.76L68.62 8.24L66.91 8.24L65.21 8.24L65.21 14.2L65.21 20.16C64.99 20.4 64.87 20.53 64.84 20.56C64.41 21.04 63.64 21.23 63.28 20.94C62.84 20.62 62.76 19.42 62.76 13.78C62.76 13.41 62.76 11.56 62.76 8.24L61.05 8.24L59.34 8.24L59.38 14.7C59.42 19.46 59.72 22.14 60.26 22.74Z" id="jhE2NtAo"></path></defs><g><g><use xlink:href="#bPytBQTg5" opacity="1" fill="#f50e02" fill-opacity="1"></use><g><use xlink:href="#bPytBQTg5" opacity="1" fill-opacity="0" stroke="#000000" stroke-width="1" stroke-opacity="0"></use></g></g><g><use xlink:href="#d7hJMpGZ6G" opacity="1" fill="#000000" fill-opacity="1"></use><g><use xlink:href="#d7hJMpGZ6G" opacity="1" fill-opacity="0" stroke="#000000" stroke-width="1" stroke-opacity="0"></use></g></g><g><use xlink:href="#h19Fi0n6YH" opacity="1" fill="#000000" fill-opacity="1"></use><g><use xlink:href="#h19Fi0n6YH" opacity="1" fill-opacity="0" stroke="#000000" stroke-width="1" stroke-opacity="0"></use></g></g><g><use xlink:href="#k3jW6twSo" opacity="1" fill="#000000" fill-opacity="1"></use><g><use xlink:href="#k3jW6twSo" opacity="1" fill-opacity="0" stroke="#000000" stroke-width="1" stroke-opacity="0"></use></g></g><g><use xlink:href="#bPbVidMom" opacity="1" fill="#000000" fill-opacity="1"></use><g><use xlink:href="#bPbVidMom" opacity="1" fill-opacity="0" stroke="#000000" stroke-width="1" stroke-opacity="0"></use></g></g><g><use xlink:href="#b1GLMNlFlv" opacity="1" fill="#000000" fill-opacity="1"></use><g><use xlink:href="#b1GLMNlFlv" opacity="1" fill-opacity="0" stroke="#000000" stroke-width="1" stroke-opacity="0"></use></g></g><g><use xlink:href="#ee4gZd62E" opacity="1" fill="#000000" fill-opacity="1"></use><g><use xlink:href="#ee4gZd62E" opacity="1" fill-opacity="0" stroke="#000000" stroke-width="1" stroke-opacity="0"></use></g></g><g><use xlink:href="#eDm7AXow" opacity="1" fill="#000000" fill-opacity="1"></use><g><use xlink:href="#eDm7AXow" opacity="1" fill-opacity="0" stroke="#000000" stroke-width="1" stroke-opacity="0"></use></g></g><g><use xlink:href="#jhE2NtAo" opacity="1" fill="#000000" fill-opacity="1"></use><g><use xlink:href="#jhE2NtAo" opacity="1" fill-opacity="0" stroke="#000000" stroke-width="1" stroke-opacity="0"></use></g></g></g></svg>