<svg id="Laag_1" data-name="Laag 1" xmlns="http://www.w3.org/2000/svg" viewBox="0 0 704 336"><defs><style>.cls-1{fill:none}.cls-2{fill:#000085}.cls-3{fill:#f1f1f1}.cls-4{fill:#007c70}.cls-5{fill:#fff}.cls-6{fill:#cbcbcb}.cls-7{fill:gold}.cls-8{fill:#1b6eff}.cls-9{fill:#b476ff}.cls-10{fill:#aeaeae}.cls-12{fill:#7c7c7c}.cls-13{fill:#e4c5ff}.cls-14{fill:#fa6500}.cls-15{fill:#599bff}.cls-16{fill:#9a43ff}.cls-17{fill:#00a08c}.cls-18{fill:#ff8c00}.cls-20{fill:#2b18ff}.cls-21{fill:#e4e4e4}.cls-22{fill:#d09bff}.cls-23{fill:#e0ecff}.cls-24{fill:#cf4000}.cls-26{fill:#eabd00}.cls-28{fill:#e2a700}.cls-29{fill:#d78800}.cls-30{fill:#ff5149}.cls-31{fill:#ff8780}</style><clipPath id="clip-path"><path class="cls-1" d="M618.34 198.33l56.51 104.72a5.39 5.39 0 0 1-4.74 7.94 9.14 9.14 0 0 1-8-4.79l-45.61-84.46-6.65-12.33 6-11.08z"/></clipPath><clipPath id="clip-path-2"><path class="cls-1" d="M418.25 188.67c8.61-34.35 44.3-42.84 69.77-51.37l.59.66c-9.24 2.76-15.21 9.93-15.21 23 0 11 7.31 18.15 15.58 28.43l5.47 6.8 1.9 2.36A94.88 94.88 0 0 1 507 191l19.46 32.66c-41.2 39.89-70 19.72-74.26 16.49a55.42 55.42 0 0 1-17 7c-.74.16-1.48.29-2.23.4-10.87-10.27-16.66-27.14-16.66-42.35a68.22 68.22 0 0 1 1.94-16.53z"/></clipPath><clipPath id="clip-path-3"><path class="cls-1" d="M465.76 261.93v49.54h-33.63v-50.76h33.63v1.22z"/></clipPath><clipPath id="clip-path-4"><path class="cls-1" d="M281.36 292.73l-4.72 8.18-3.14 5.46c-2.42 4.2-8.89 5.51-17.29 4.21-7.66-1.18-16.92-4.54-26.16-9.86a97.951 97.951 0 0 1-5.32-3.29c-16.17-10.75-25.56-24.18-21.37-31.45l7.87-13.66c-4.62 8 7.33 23.58 26.69 34.74s38.77 13.67 43.44 5.67z"/></clipPath><clipPath id="clip-path-5"><path class="cls-1" d="M176.06 226.06c-6-4 .81-6.9-8.5-6.9-2.06 0 .28-7.47-1.56-7.26l-2.24-8.46c5.07-3.71 7.11-8.69 7.11-12.92A14.16 14.16 0 0 0 164 178.7l6.79-9.83a59 59 0 0 1 11.6 14.4c7.58-18.19 10.7-25.44 12-29.37h41s3.39 51.95-59.33 72.16z"/></clipPath><clipPath id="clip-path-6"><path class="cls-1" d="M89.15 159.45h-1.93c-27.29 0-51 23.6-51 53.4 0 27.55 18.61 40.62 34.54 40.62h1.5c14.16-.79 24.31-12.67 33.9-20l-21.28-31.32a80.26 80.26 0 0 1 21.69-11.55c-.08-6.08.98-23.24-17.42-31.15z"/></clipPath></defs><path class="cls-2" d="M345.87 177.76c4.25-3.11 6.92-9 6.92-14.61 0-8.1-5.65-12.64-11.93-12.64-5.82 0-8.66 5.15-8.66 10.65a15.51 15.51 0 0 0 1.92 7.56c2.26 4 5.71 7.49 7.07 11.39a14.61 14.61 0 0 0 4.68-2.35z"/><path class="cls-3" d="M289.4 309.59a5.36 5.36 0 0 0-5.36-5.37h-55.5a5.37 5.37 0 1 0 0 10.73H284a5.36 5.36 0 0 0 5.4-5.36z"/><path class="cls-4" d="M587 257.8l-38.43-60.14a23.94 23.94 0 0 0-10.21-2.13c-11.51 0-22.51 7.69-22.51 20.32 0 13.76 46.74 53 61 53 7.56.02 8.6-4.22 10.15-11.05z"/><path class="cls-5" d="M569.45 251.41A50.75 50.75 0 0 0 530 221.18a35.31 35.31 0 0 0-3.25 2.31 6.76 6.76 0 0 0-4.53-1.55c-3.1 0-5.38 1.22-9.23 1.22-7.21 0-14.19-2.53-21.51-2.53-23.77 0-32.37 11.35-39 19.74l-.24-.18a55.42 55.42 0 0 1-17 7q.7 1.13 1.56 2.28a1.12 1.12 0 0 0 0 .27c0 1.93 13.33 21.08 42.35 21.08a70.36 70.36 0 0 0 13.27-1.22v42.12l1.29.16h33.09c21.94-2.62 46.26-12.23 46.26-40.35 0-.72.06-1.43.06-2.15a46.21 46.21 0 0 0-3.67-17.97z"/><path class="cls-6" d="M633.93 307.85a3.85 3.85 0 0 0-3.85-3.85h-46.81a3.85 3.85 0 0 0 0 7.7h46.81a3.85 3.85 0 0 0 3.85-3.85z"/><path class="cls-7" d="M595.82 309.59a6.86 6.86 0 0 1-4.55 1.5c-12.25 0-7.48-18.58-16.61-18.58-8.28 0 0 18.82-12.23 18.82-4.49 0-7.59-3-9.38-7.12a36 36 0 0 0 3.21-2.09 39.51 39.51 0 0 0 16.8-30.57l10.65-19.74 10.37 16.27a42.08 42.08 0 0 0 5.78 7.19 41.34 41.34 0 0 0 7.56 6 50.59 50.59 0 0 1 5.82 4.15c4.55 3.81 7.75 8.35 7.75 13.82s-2.89 11.76-9 11.76a8.77 8.77 0 0 1-5.71-2.09 7.84 7.84 0 0 1-5.57 2.31 8.21 8.21 0 0 1-4.83-1.61z"/><path class="cls-8" d="M597.63 73.13c-5 7.22 2.16 13.79-8.22 19.54a16.61 16.61 0 0 1-7.33 2l-7.7-4.37L550 76.48v1.7a20.36 20.36 0 0 1-2.25 10.14l-11.58-6.72A7.21 7.21 0 1 0 529 94.1l7.07 4a6.83 6.83 0 0 0-2.49 5.45c0 4.13 2.91 8.65 2.91 12.75 0 5.69-4.6 11.14-10.28 11.14-18.07 0 1.46-30.13-21-30.13-7.36 0-12.42 6.89-12.42 13.85 0 7.13 4.83 15.7 13.27 18.44-4.71 2.93-11 5.31-18.08 7.68-7.38-8.32-14.68-16.34-14.68-31.47 0-22.11 19.52-32.16 29.78-33.7a12.7 12.7 0 0 1-.16-2c0-8.2 8.11-14.44 16.08-14.44a20.43 20.43 0 0 1 4 .49 21.78 21.78 0 0 0 4.11.42c11.31 0 12.32-10.54 29.11-10.54 8.4 0 9.27 6 15.37 6 5.86 0 10.39-4.74 17.75-4.74 8.34 0 13.76 5.52 13.76 13 .04 6-3.03 9.33-5.47 12.83z"/><path class="cls-8" d="M503.61 73.72a1.1 1.1 0 0 1-.83-.38 12.11 12.11 0 0 1-3.08-8.15 14.54 14.54 0 0 1 .36-3.17 1.1 1.1 0 0 1 1.32-.82 1.08 1.08 0 0 1 .82 1.31 12.61 12.61 0 0 0-.31 2.68 10 10 0 0 0 2.55 6.71 1.1 1.1 0 0 1-.83 1.82z"/><path class="cls-8" d="M503.59 73.6a1 1 0 0 1-.33 0c-4.84-1.5-7.75-4.06-8.19-7.2a1.1 1.1 0 1 1 2.17-.3c.43 3 4.37 4.69 6.68 5.41a1.09 1.09 0 0 1-.33 2.14z"/><path class="cls-2" d="M480.28 128.15a1.1 1.1 0 0 1-.72-1.93c5.32-4.58 7.8-9.48 7.8-15.39a1.1 1.1 0 0 1 1.1-1.1 1.09 1.09 0 0 1 1.09 1.1c0 6.51-2.8 12.09-8.55 17.06a1.14 1.14 0 0 1-.72.26zM475.44 118a1.1 1.1 0 0 1-.74-1.91 19.75 19.75 0 0 0 6.66-11.73 1.1 1.1 0 0 1 2.17.36 22.17 22.17 0 0 1-7.35 13 1.05 1.05 0 0 1-.74.28zM569.77 88.49a1.1 1.1 0 0 1 0-2.19c14.51-.45 16.23-14.89 16.46-19.3a1.1 1.1 0 0 1 2.2.1c-.58 13.06-7.54 21.06-18.62 21.4zM560.88 83.44a1.1 1.1 0 0 1-.22-2.18c8.52-1.68 14-8.36 13.75-13.54a1.1 1.1 0 1 1 2.19-.1c.32 6.84-6.79 14.08-15.51 15.8z"/><path class="cls-9" d="M582.08 94.71a21.6 21.6 0 0 1 1 6.65 19.47 19.47 0 0 1-.67 4.82 16.53 16.53 0 0 0-8.49-2.89c-4.47 0-7.78 4.1-7.78 8.16 0 3.43 2.73 6.06 6.47 8.46.78.5 1.6 1 2.44 1.47a109.21 109.21 0 0 1-6.53 8.82c-6.12-3.85-16.11-7.9-16.11-17.83a13.57 13.57 0 0 1 .81-4.47l-17.2-9.78c3.18-2.84 8.65-4.33 11.71-9.8l12.82 7.41A13.21 13.21 0 0 1 571 89.88a13.35 13.35 0 0 1 3.37.46z"/><path class="cls-5" d="M582.46 106.18c-.08.32-.16.64-.26 1a10.94 10.94 0 0 0-2.5-.3c-5.14 0-8.9 4-8.9 8.24a7.24 7.24 0 0 0 1.86 4.83c-3.74-2.4-6.47-5-6.47-8.46 0-4.06 3.31-8.16 7.78-8.16a16.53 16.53 0 0 1 8.49 2.85z"/><path class="cls-10" d="M618.34 198.33l56.51 104.72a5.39 5.39 0 0 1-4.74 7.94 9.14 9.14 0 0 1-8-4.79l-45.61-84.46-6.65-12.33 6-11.08z"/><g clip-path="url(#clip-path)"><path class="cls-6" d="M656.57 299.45h24.9v18.16h-24.9z"/><path class="cls-12" d="M652.48 288.82h24.9v10.63h-24.9z"/></g><path class="cls-2" d="M652.83 85.94a8.5 8.5 0 0 1 0 17h-28.39v-17z"/><path class="cls-13" d="M653.39 115.67c4.79.1 8.65 8.5 8.65 18.84s-3.86 18.74-8.65 18.84z"/><path class="cls-8" d="M653.39 153.35v3.7l-10.74-3.4v-37.78l10.74-3.9v41.38z"/><path class="cls-2" d="M642.65 115.87v37.78l-9.46-3V119.3l9.46-3.43z"/><path class="cls-8" d="M633.55 150.65v1.14a7.19 7.19 0 0 1-7.18 7.18h-32.93a7.18 7.18 0 0 1-7.17-7.18v-34.56a7.17 7.17 0 0 1 7.17-7.18h32.93a7.18 7.18 0 0 1 7.18 7.18v33.42z"/><path class="cls-10" d="M631.26 167.21v12.99h-43.79v-12.99h43.79z"/><path class="cls-2" d="M625.73 180.2v18.13H593V195h13.84a5.77 5.77 0 0 0 0-11.54h-16.36v-3.26zM601.24 159h16.25a8.36 8.36 0 0 1 8.23 8.24H593a8.36 8.36 0 0 1 8.24-8.24z"/><path class="cls-10" d="M624.44 102.61v1.57a6.76 6.76 0 0 1-3.39 5.87H608.7v-8.61a4.89 4.89 0 0 0-4.89-4.89H602V82.73a6.79 6.79 0 0 1 6.78-6.79h8.9a6.79 6.79 0 0 1 6.78 6.79v19.88z"/><path class="cls-12" d="M607.42 281.26a50.59 50.59 0 0 1 5.82 4.15 30.51 30.51 0 0 1 3.26 3.15v-66.82l-6.65-12.33-6.74 12.48v56.31a42 42 0 0 0 4.31 3.06z"/><path class="cls-6" d="M601.35 198.33l-22.22 41.18-8.31 15.57a46 46 0 0 1 2.3 14.32c0 .72-.06 1.43-.06 2.15a43.38 43.38 0 0 1-.61 7.4l8.38-15.53 22.28-41.53 6.74-12.48 6-11.08z"/><path class="cls-8" d="M606.85 183.41a5.77 5.77 0 0 1 0 11.54h-27.53a5.77 5.77 0 1 0 0-11.53h27.53z"/><path class="cls-14" d="M608.7 101.44v8.61h-13.8v-8.61a4.89 4.89 0 0 1 4.89-4.89h4a4.89 4.89 0 0 1 4.91 4.89z"/><path class="cls-15" d="M579.32 183.42a5.77 5.77 0 1 1-5.76 5.76 5.77 5.77 0 0 1 5.76-5.76z"/><path class="cls-2" d="M579.7 106.84a10.94 10.94 0 0 1 2.5.3 55.25 55.25 0 0 1-7.1 14.24c-.84-.48-1.66-1-2.44-1.47a7.24 7.24 0 0 1-1.86-4.83c0-4.23 3.76-8.24 8.9-8.24z"/><path class="cls-7" d="M550 76.48l24.4 13.86a13.35 13.35 0 0 0-3.37-.46 13.21 13.21 0 0 0-10.41 5.85l-12.82-7.41a20.36 20.36 0 0 0 2.2-10.14v-1.7zM528.46 173.52l.08 7.43.07.21a87.4 87.4 0 0 0-10.67 4.07L502 181a38.79 38.79 0 0 0 1.17-9.43c0-16.57-7.24-25.34-14.59-33.64l-.59-.66c7.08-2.37 13.37-4.75 18.08-7.68-8.44-2.74-13.27-11.31-13.27-18.44 0-7 5.06-13.85 12.42-13.85 22.42 0 2.89 30.13 21 30.13 5.68 0 10.28-5.45 10.28-11.14 0-4.1-2.91-8.62-2.91-12.75a6.83 6.83 0 0 1 2.49-5.45l17.2 9.78a13.57 13.57 0 0 0-.81 4.47c0 9.93 10 14 16.11 17.83a22.54 22.54 0 0 1 2.25 1.56 5.77 5.77 0 0 1 2.1 4.51c0 3.67-3.1 5.7-6.37 5.7a8.2 8.2 0 0 1-3.11-.64c-.21 1-.44 1.93-.67 2.88l-7.7-3.52a17.66 17.66 0 0 0 5.91 10c-4.29 13.73-11.41 23.41-27.13 23.41a22.39 22.39 0 0 1-5.4-.55z"/><path class="cls-7" d="M517.94 185.23a87.4 87.4 0 0 1 10.67-4.07 59.34 59.34 0 0 1 17.18-2.86c7.37 0 16.62 2 16.62 9.3a7.81 7.81 0 0 1-2.81 5.92 8.68 8.68 0 0 1 4.58 7.42 7.81 7.81 0 0 1-4.48 6.87 5.37 5.37 0 0 1 1.44 3.55 6 6 0 0 1-1.12 3.26 11.86 11.86 0 0 1-10 4.82c-3.65 0-7.43-1.05-11.12-1.05a16.83 16.83 0 0 0-9 2.79 34.61 34.61 0 0 0-3.51 2.52L507 191a101.39 101.39 0 0 1 10.94-5.77z"/><path class="cls-5" d="M555.07 140.69l7.7 3.52a93.28 93.28 0 0 1-1.79 6.52 17.66 17.66 0 0 1-5.91-10.04z"/><path class="cls-16" d="M536.17 81.6l11.61 6.72c-3.06 5.47-8.53 7-11.71 9.8l-7.07-4a7.21 7.21 0 1 1 7.17-12.5z"/><path class="cls-2" d="M502 181l15.9 4.2A101.39 101.39 0 0 0 507 191a94.88 94.88 0 0 0-10.63 7.52l-1.9-2.36A37.82 37.82 0 0 0 502 181z"/><path class="cls-5" d="M503.2 171.6a38.79 38.79 0 0 1-1.2 9.4 37.82 37.82 0 0 1-7.58 15.17L489 189.4c-8.29-10.28-15.6-17.4-15.6-28.4 0-13.08 6-20.25 15.21-23 7.39 8.26 14.59 17 14.59 33.6z"/><path class="cls-17" d="M418.25 188.67c8.61-34.35 44.3-42.84 69.77-51.37l.59.66c-9.24 2.76-15.21 9.93-15.21 23 0 11 7.31 18.15 15.58 28.43l5.47 6.8 1.9 2.36A94.88 94.88 0 0 1 507 191l19.46 32.66c-41.2 39.89-70 19.72-74.26 16.49a55.42 55.42 0 0 1-17 7c-.74.16-1.48.29-2.23.4-10.87-10.27-16.66-27.14-16.66-42.35a68.22 68.22 0 0 1 1.94-16.53z"/><path class="cls-18" d="M528.47 175a1.24 1.24 0 0 1-.27 0 15.79 15.79 0 0 1-11.15-9 1.1 1.1 0 0 1 2-.9 13.76 13.76 0 0 0 9.67 7.7 1.1 1.1 0 0 1-.26 2.16zM560 194.26a1.17 1.17 0 0 1-.47-.1 12.52 12.52 0 0 0-7.85-.69 1.1 1.1 0 1 1-.43-2.15 14.67 14.67 0 0 1 9.22.85 1.09 1.09 0 0 1-.47 2.09zM560.1 209.41a1.1 1.1 0 0 1-.89-.46c-2.06-2.84-6.26-3.54-9.22-3.28a1.09 1.09 0 1 1-.2-2.18c3.71-.33 8.6.59 11.2 4.17a1.1 1.1 0 0 1-.25 1.54 1.09 1.09 0 0 1-.64.21z"/><path class="cls-6" d="M511.08 308.3a1.09 1.09 0 0 1-1.05-.79 1.1 1.1 0 0 1 .75-1.36c11.38-3.26 20.42-9.25 26.14-17.31a37 37 0 0 0 6.75-24c-1.13-15.19-11-26.62-24.59-28.42a1.09 1.09 0 1 1 .29-2.17A28.81 28.81 0 0 1 538 244.59a35.73 35.73 0 0 1 7.81 20 39.12 39.12 0 0 1-7.14 25.47c-6 8.47-15.46 14.75-27.33 18.15a1 1 0 0 1-.26.09zM484.36 279a1.1 1.1 0 1 1 0-2.19c11.18-.1 21.27-4.07 27.67-10.92a1.1 1.1 0 1 1 1.6 1.51c-6.81 7.27-17.48 11.51-29.26 11.6z"/><path class="cls-6" d="M544.65 273.27a1.1 1.1 0 0 1-.83-1.81 32.18 32.18 0 0 1 19.31-10.24c.33-.05.65-.09 1-.12a1.1 1.1 0 0 1 .25 2.18c-.31 0-.61.07-.91.12a29.9 29.9 0 0 0-18 9.49 1.1 1.1 0 0 1-.82.38z"/><path class="cls-18" d="M596.9 311.36a1.08 1.08 0 0 1-.6-.18 1.1 1.1 0 0 1-.32-1.52c3.6-5.47 1.49-12.77-2.2-17.58a1.1 1.1 0 0 1 1.74-1.34c4.16 5.43 6.49 13.76 2.3 20.13a1.12 1.12 0 0 1-.92.49zM606.62 310.31a1.09 1.09 0 0 1-.81-1.84c3.78-4.15 4.44-12.29-1.79-19.19a1.1 1.1 0 1 1 1.63-1.47 20.59 20.59 0 0 1 5.08 10.74 13.65 13.65 0 0 1-3.3 11.4 1.07 1.07 0 0 1-.81.36z"/><circle class="cls-14" cx="541.2" cy="123.52" r=".9"/><circle class="cls-14" cx="547.81" cy="124.6" r=".9"/><circle class="cls-14" cx="547.95" cy="131.42" r=".9"/><circle class="cls-14" cx="553.5" cy="128.58" r=".9"/><circle class="cls-14" cx="541.39" cy="130.93" r=".9"/><path class="cls-8" d="M483.87 160.76a7.52 7.52 0 0 1-7.52-7.51 1.1 1.1 0 0 1 2.2 0 5.32 5.32 0 0 0 10.64 0 1.1 1.1 0 1 1 2.19 0 7.52 7.52 0 0 1-7.51 7.51z"/><path class="cls-8" d="M490.39 167.48a7.52 7.52 0 0 1-7.51-7.51 1.1 1.1 0 1 1 2.19 0 5.32 5.32 0 0 0 10.64 0 1.1 1.1 0 0 1 2.2 0 7.52 7.52 0 0 1-7.52 7.51zM492 182.41a7.52 7.52 0 0 1-7.52-7.52 1.1 1.1 0 0 1 2.2 0 5.32 5.32 0 1 0 10.64 0 1.1 1.1 0 0 1 2.19 0 7.52 7.52 0 0 1-7.51 7.52z"/><g clip-path="url(#clip-path-2)"><circle class="cls-4" cx="433.28" cy="164.47" r="4.93"/><circle class="cls-4" cx="457.45" cy="170.13" r="4.93"/><circle class="cls-4" cx="465.99" cy="144.51" r="4.93"/><circle class="cls-4" cx="491.97" cy="243.38" r="4.93"/><circle class="cls-4" cx="509.55" cy="218.65" r="4.93"/><circle class="cls-4" cx="472.13" cy="221.37" r="4.93"/><circle class="cls-4" cx="478.02" cy="192.14" r="4.93"/><circle class="cls-4" cx="453.24" cy="206.33" r="4.93"/><circle class="cls-4" cx="431.11" cy="188.53" r="4.93"/><circle class="cls-4" cx="425.34" cy="219.56" r="4.93"/><path class="cls-4" d="M447.43 237.21a4.93 4.93 0 1 0-5.23-6.52 44 44 0 0 0 5.23 6.52z"/></g><path class="cls-5" d="M454.31 244.19a1.09 1.09 0 0 1-.68-.24 14.28 14.28 0 0 0-1.43-1c-.34-.21-.71-.43-1.13-.71l-.07-.06c-11.33-8.93-18.69-22.57-20.71-38.42a1.09 1.09 0 1 1 2.17-.28c2 15.26 9 28.38 19.87 37 .38.26.71.46 1 .65a17.19 17.19 0 0 1 1.65 1.12 1.1 1.1 0 0 1 .17 1.54 1.06 1.06 0 0 1-.84.4z"/><path class="cls-4" d="M349 76.12h-65.61c.62-1.75 1.07-3.66 1.71-5.51a11.78 11.78 0 0 1 9.61-7.81 11.8 11.8 0 0 1 1.46-.09l40.54-.06a16.66 16.66 0 0 1 2.3.15c6.3.91 8.83 5.62 9.68 11.14.11.72.2 1.44.31 2.18z"/><path class="cls-17" d="M310.08 49.26a6.66 6.66 0 0 1-3-5.4c0-4.63 5.28-9.28 11.35-9.28 5.75 0 8.7 3.63 8.7 8.3a8.92 8.92 0 0 1-2.77 6.64c.81-.07 1.57-.11 2.29-.11 7.53 0 10.8 3.92 11.94 9.76a27.07 27.07 0 0 1 .41 3.63 16.66 16.66 0 0 0-2.3-.15l-40.54.06a11.8 11.8 0 0 0-1.46.09 15.91 15.91 0 0 1 3.85-9.07c2.8-3 5.11-4.51 10.1-4.51.47 0 .95.02 1.43.04z"/><path class="cls-8" d="M292.89 66.19h14.54v12.28h-14.54zM311.05 242c-2.08-3.45-5-6.3-7.24-9.64-1.52-2.29-6.92-19.49-28.09-19.49-15.35 0-24.81 13.3-24.81 25.78 0 12.12 8.71 21.37 24 21.37 10.51 0 29.63-14.75 32.52-19.55"/><path class="cls-18" d="M385 168.2c-3.74-.7-5.59-3.84-5.59-7.26a9.91 9.91 0 0 1 .39-2.74 7.51 7.51 0 0 1-4.15-7.14c0-7.69 8.37-13 15.81-13a30.29 30.29 0 0 1 6.74.71 20.06 20.06 0 0 1 12.5 8.17c5 7.17 7.37 16.48 7.37 26.24a65.86 65.86 0 0 1-1.84 15.27c-2.41 10-7.1 19.52-13.72 26.71a49.27 49.27 0 0 0-4.29-5.74v-32.49c-2.3.29-4.62 1-6.83 1a7.13 7.13 0 0 1-7.18-6.72 6.62 6.62 0 0 1 .79-3.01z"/><path class="cls-20" d="M398.41 249.77v61.58h-.17v-102a49.27 49.27 0 0 1 4.29 5.74c6 9.4 9.59 21.45 11.32 34.64z"/><path class="cls-7" d="M398.24 311.35v-102c-7.47-8.58-17.81-13.87-31.74-14.12v116.12z"/><path class="cls-7" d="M366.5 130.43V90.86h31.74V138.74a30.29 30.29 0 0 0-6.74-.71c-7.44 0-15.81 5.34-15.81 13a7.51 7.51 0 0 0 4.15 7.14 9.91 9.91 0 0 0-.39 2.74c0 3.42 1.85 6.56 5.59 7.26a6.62 6.62 0 0 0-.79 3 7.13 7.13 0 0 0 7.18 6.72c2.21 0 4.53-.74 6.83-1v32.46c-7.47-8.58-17.81-13.87-31.74-14.12v-64.8z"/><path class="cls-13" d="M366.5 297.53v13.82h-10.8a54.4 54.4 0 0 1-3.7-13.82h14.5z"/><path class="cls-4" d="M366.5 276.16v21.37H352a68.44 68.44 0 0 1-.58-9 80.69 80.69 0 0 1 1.7-16.8 24.6 24.6 0 0 1 13 4.39z"/><path class="cls-21" d="M366.5 268.89v7.27h-.37a24.6 24.6 0 0 0-13-4.39q.3-1.44.66-2.88h12.71z"/><path class="cls-18" d="M366.5 185.41v9.86h-1.07a38 38 0 0 0-8.81 1v-21.55a30.86 30.86 0 0 1 9.51 10.69zM358.85 115.05a5 5 0 0 0-5-5.31h-.24c.15-.45.29-.91.43-1.38a45.65 45.65 0 0 0 1.83-12.73 39.32 39.32 0 0 0-.49-6.45c-.15-1-.34-1.86-.56-2.74a25.27 25.27 0 0 0-.83-2.63 51.6 51.6 0 0 1-5.95.34c-7.86 0-18.26-1.42-24.75-6.6-3.58 10.36-20.39 14.23-20.39 27.92 0 8.68 9.66 13.47 16.53 13.47.52 0 1.05 0 1.57-.06l2.58 22.19a36.11 36.11 0 0 1-10.42 1.65 26.61 26.61 0 0 1-18-6.73c-1.42 6.83-8.4 12.25-17.45 14.69H312a22.74 22.74 0 0 0 8 5.65 28.45 28.45 0 0 0 11.06 2h.53c14-.2 24-8.59 24-26.28a65.42 65.42 0 0 0-.63-8.63c-.16-1.12-.33-2.23-.51-3.32a4.81 4.81 0 0 0 4.4-5.05z"/><path class="cls-22" d="M356.62 196.24a36.75 36.75 0 0 0-9.5 3.67l-10.7-32.47a39.75 39.75 0 0 1 20.2 7.27z"/><path class="cls-15" d="M343.41 202.21c7.12 6.09 10.81 16.2 10.81 26.63 0 9.59-3.1 19.17-7.37 27.88a116.49 116.49 0 0 1-7 12.17h-28.73c2.35-12.93 23.57-22 23.57-34.38 0-5.76-4.7-11.89-14.33-11.89-8.1 0-16.71 3.44-21.25 3.44a15.39 15.39 0 0 1-7.05-1.61 14.25 14.25 0 0 1-3-2.2c2.76-3 5.33-6 7.78-8.61 3-3.22 5.37-8.35 10.8-8.35 2.28 0 4.41.88 6.54.88a6.76 6.76 0 0 0 6.59-6.62 7.47 7.47 0 0 0-.48-2.55 41.46 41.46 0 0 1 6.9-.6 24.44 24.44 0 0 1 16.22 5.81z"/><path class="cls-8" d="M280.07 234.24a11.4 11.4 0 0 0-1.68-2.05 83.59 83.59 0 0 0 10.61-9.94 14.25 14.25 0 0 0 3 2.2 15.39 15.39 0 0 0 7.05 1.61c4.54 0 13.15-3.44 21.25-3.44 9.63 0 14.33 6.13 14.33 11.89 0 12.42-21.22 21.45-23.57 34.38h-30.63c3.11-5.72 14-19.5 20.53-22.62.24-.21-20.89-12.03-20.89-12.03z"/><path class="cls-18" d="M352.09 205.37c-8.21 3.06-11.66 5.71-16.58 10.74a1 1 0 0 0-.15 1.22 1.33 1.33 0 0 0 1.25.57 24.44 24.44 0 0 1 6.33 0 39.37 39.37 0 0 0-13.38 10.64.66.66 0 0 0 0 .83.9.9 0 0 0 .88.29c3.76-.74 9.74-2.45 12.44-2.57a17.37 17.37 0 0 0-6 7 .9.9 0 0 0 .2 1 1.24 1.24 0 0 0 1.13.31c3.91-.78 12.86-2.51 19.27-.76M300.75 208.83c-10 14.43-28.07 29.49-45.5 29.49-13.79 0-24.52-9-24.52-25.41 0-6.7 1.43-13.51 3.08-19.94l1-3.24c.35-1.1.75-2.18 1.19-3.27l39.65-.83c-.73 2.23-1.52 4.44-2.3 6.66a67.31 67.31 0 0 1 27.13-18 66 66 0 0 1 19.35-3.81c1.7-.06 2.74 0 2.92 0 5.72 0 13.78.27 13.78 6.06 0 3.08-2.9 6.44-8.84 6.44h-1.39a16.18 16.18 0 0 0-3.28.29 7.39 7.39 0 0 1 1.86 4.93 8.22 8.22 0 0 1-5.25 7.55 10 10 0 0 1 .62 1.28 7.47 7.47 0 0 1 .48 2.55 6.76 6.76 0 0 1-6.59 6.62c-2.13 0-4.26-.88-6.54-.88-3 0-5.09 1.58-6.85 3.54"/><path class="cls-14" d="M320.06 168.55a8.65 8.65 0 0 1-.23 1.95 66 66 0 0 0-19.35 3.81 36.93 36.93 0 0 1 3-4.29c3.37-3.92 7-7.33 11.35-7.33a4.76 4.76 0 0 1 4.49 2.7 6.91 6.91 0 0 1 .74 3.16z"/><path class="cls-22" d="M321.82 156.34a15.41 15.41 0 0 1-8.75 4.51 9.35 9.35 0 0 1-1.37.11c-5.7 0-9.56-4.38-11.58-10.1l.06-.17h13.67a22.74 22.74 0 0 0 7.97 5.65z"/><path class="cls-23" d="M300.18 150.69l-.06.17-.06-.17z"/><path class="cls-22" d="M300.06 150.69l.06.17c-2.16 5.92-5.33 10.62-12.06 10.62-7.34 0-11.3-4.75-13.77-9.29a78.88 78.88 0 0 1 5.2-1.5z"/><path class="cls-18" d="M296.44 92.05a44.25 44.25 0 0 0-7.62 24.46 35.89 35.89 0 0 0 .81 7.71c-10.44-2.16-14.9-8.94-14.9-16.62A16.26 16.26 0 0 1 291 91.09a17 17 0 0 1 5.44.96z"/><path class="cls-13" d="M268 198.84a1 1 0 0 1-.65-.22 1.09 1.09 0 0 1-.24-1.53 74 74 0 0 1 11.74-12.67 1.1 1.1 0 0 1 1.42 1.68 71.52 71.52 0 0 0-11.39 12.29 1.1 1.1 0 0 1-.88.45z"/><path class="cls-24" d="M340.2 130.08a1.1 1.1 0 0 1-.46-2.09c3.2-1.5 5.7-5.64 5.7-9.43a6.58 6.58 0 0 0-1.66-4.57 1.08 1.08 0 0 1 .06-1.55 1.1 1.1 0 0 1 1.55.06 8.75 8.75 0 0 1 2.25 6.06c0 4.65-3 9.56-7 11.42a1.1 1.1 0 0 1-.44.1z"/><path class="cls-24" d="M352.14 124.74a11.7 11.7 0 0 1-6.77-1.92 1.09 1.09 0 0 1-.28-1.52 1.11 1.11 0 0 1 1.53-.29c2.06 1.42 4.89 1.86 8.21 1.3a1.1 1.1 0 1 1 .37 2.17 19.25 19.25 0 0 1-3.06.26z"/><path class="cls-7" d="M391.05 179.78c-3.91 0-8.28-3.21-8.28-7.82s5.31-10.1 11.89-10.1a8.59 8.59 0 0 1 2.57.38 1.09 1.09 0 1 1-.65 2.09 6.55 6.55 0 0 0-1.92-.27c-4.27 0-9.69 3.72-9.69 7.9a6 6 0 0 0 6.08 5.62A20.52 20.52 0 0 0 395 177a23.3 23.3 0 0 1 4.5-.59 9.88 9.88 0 0 1 2.3.26 1.1 1.1 0 0 1-.53 2.14 7 7 0 0 0-1.77-.2 20.66 20.66 0 0 0-4.07.55 23.06 23.06 0 0 1-4.38.62z"/><path class="cls-7" d="M384.66 170h-.21c-3.93-.75-6.48-4-6.48-8.35 0-5.4 4.1-11.13 11.69-11.13a17.75 17.75 0 0 1 4.4.58 1.1 1.1 0 1 1-.54 2.13 15.93 15.93 0 0 0-3.86-.52c-4.6 0-9.49 3.14-9.49 8.94 0 2.57 1.23 5.54 4.69 6.19a1.1 1.1 0 0 1-.2 2.18z"/><path class="cls-8" d="M377.41 297.55h-8.24a1.1 1.1 0 1 1 0-2.19h8.24a1.1 1.1 0 1 1 0 2.19zM377.41 289.65h-8.24a1.1 1.1 0 0 1 0-2.2h8.24a1.1 1.1 0 0 1 0 2.2zM377.41 281.74h-8.24a1.1 1.1 0 1 1 0-2.2h8.24a1.1 1.1 0 1 1 0 2.2zM377.41 273.83h-8.24a1.1 1.1 0 1 1 0-2.19h8.24a1.1 1.1 0 1 1 0 2.19zM383.71 265.92h-14.54a1.1 1.1 0 1 1 0-2.19h14.54a1.1 1.1 0 0 1 0 2.19zM377.41 258h-8.24a1.1 1.1 0 0 1 0-2.2h8.24a1.1 1.1 0 0 1 0 2.2zM377.41 250.11h-8.24a1.1 1.1 0 1 1 0-2.2h8.24a1.1 1.1 0 0 1 0 2.2zM377.41 242.2h-8.24a1.1 1.1 0 0 1 0-2.2h8.24a1.1 1.1 0 0 1 0 2.2zM377.41 234.29h-8.24a1.1 1.1 0 1 1 0-2.19h8.24a1.1 1.1 0 1 1 0 2.19zM383.71 226.38h-14.54a1.1 1.1 0 1 1 0-2.19h14.54a1.1 1.1 0 0 1 0 2.19zM377.41 218.48h-8.24a1.1 1.1 0 0 1 0-2.2h8.24a1.1 1.1 0 0 1 0 2.2zM377.41 210.57h-8.24a1.1 1.1 0 0 1 0-2.2h8.24a1.1 1.1 0 0 1 0 2.2zM377.41 202.66h-8.24a1.1 1.1 0 1 1 0-2.19h8.24a1.1 1.1 0 1 1 0 2.19zM377.41 194.75h-8.24a1.1 1.1 0 1 1 0-2.19h8.24a1.1 1.1 0 1 1 0 2.19zM383.71 186.85h-14.54a1.1 1.1 0 0 1 0-2.2h14.54a1.1 1.1 0 0 1 0 2.2zM377.41 178.94h-8.24a1.1 1.1 0 0 1 0-2.2h8.24a1.1 1.1 0 0 1 0 2.2zM377.41 171h-8.24a1.1 1.1 0 1 1 0-2.19h8.24a1.1 1.1 0 1 1 0 2.19zM375.23 163.12h-6.06a1.1 1.1 0 1 1 0-2.19h6.06a1.1 1.1 0 1 1 0 2.19zM373.71 155.22h-4.54a1.1 1.1 0 0 1 0-2.2h4.54a1.1 1.1 0 0 1 0 2.2zM373.89 147.31h-4.72a1.1 1.1 0 0 1 0-2.2h4.72a1.1 1.1 0 1 1 0 2.2zM377.41 139.4h-8.24a1.1 1.1 0 1 1 0-2.19h8.24a1.1 1.1 0 1 1 0 2.19zM377.41 123.59h-8.24a1.1 1.1 0 0 1 0-2.2h8.24a1.1 1.1 0 0 1 0 2.2zM377.41 131.18h-8.24a1.1 1.1 0 1 1 0-2.19h8.24a1.1 1.1 0 1 1 0 2.19zM377.41 115.68h-8.24a1.1 1.1 0 0 1 0-2.2h8.24a1.1 1.1 0 0 1 0 2.2zM383.71 107.77h-14.54a1.1 1.1 0 1 1 0-2.19h14.54a1.1 1.1 0 0 1 0 2.19zM377.41 99.86h-8.24a1.1 1.1 0 1 1 0-2.19h8.24a1.1 1.1 0 1 1 0 2.19zM383.71 305.46h-14.54a1.1 1.1 0 1 1 0-2.19h14.54a1.1 1.1 0 0 1 0 2.19zM465.76 261.93v49.54h-33.63v-50.76h33.63v1.22z"/><path class="cls-22" d="M465.85 208.02v103.45h33.63V208.02h-33.63z"/><path class="cls-2" d="M499.58 311.47v-33.08h33.63v33.19h-33.63v-.11z"/><g clip-path="url(#clip-path-3)"><path class="cls-2" d="M466.45 315.31a1.07 1.07 0 0 1-.78-.32 1.09 1.09 0 0 1 0-1.55l2.06-2.06a1.1 1.1 0 1 1 1.55 1.55l-2.06 2.07a1.05 1.05 0 0 1-.77.31zM447.32 315.31a1.05 1.05 0 0 1-.77-.32 1.09 1.09 0 0 1 0-1.55l21.18-21.18a1.1 1.1 0 1 1 1.55 1.55L448.1 315a1.07 1.07 0 0 1-.78.31zM456.89 315.31a1.06 1.06 0 0 1-.78-.32 1.09 1.09 0 0 1 0-1.55l11.62-11.62a1.1 1.1 0 0 1 1.55 1.55L457.66 315a1.05 1.05 0 0 1-.77.31zM437.76 315.31a1.05 1.05 0 0 1-.76-.31 1.09 1.09 0 0 1 0-1.55l30.74-30.74a1.1 1.1 0 0 1 1.55 1.55L438.54 315a1.09 1.09 0 0 1-.78.31zM432.16 311.36a1.1 1.1 0 0 1-.78-1.87l36.35-36.35a1.1 1.1 0 1 1 1.55 1.55L432.93 311a1.09 1.09 0 0 1-.77.36zM432.16 301.8a1.1 1.1 0 0 1-.78-1.88l36.35-36.34a1.1 1.1 0 0 1 1.55 1.55l-36.35 36.35a1.09 1.09 0 0 1-.77.32zM432.16 292.24a1.1 1.1 0 0 1-.78-1.88L467.73 254a1.1 1.1 0 1 1 1.55 1.56l-36.35 36.35a1.09 1.09 0 0 1-.77.33zM432.16 283.07a1.06 1.06 0 0 1-.78-.32 1.09 1.09 0 0 1 0-1.55l27.71-27.71a1.1 1.1 0 1 1 1.55 1.55l-27.71 27.71a1.05 1.05 0 0 1-.77.32zM432.16 264a1.1 1.1 0 0 1-.78-1.87l8.59-8.59a1.1 1.1 0 1 1 1.55 1.55l-8.59 8.59a1.09 1.09 0 0 1-.77.32zM432.16 273.51a1.1 1.1 0 0 1-.78-1.87l18.15-18.15a1.1 1.1 0 0 1 1.55 1.55l-18.15 18.15a1.09 1.09 0 0 1-.77.32z"/></g><path class="cls-14" d="M432.03 311.35v-61.58H398.2v61.58h33.83z"/><path class="cls-17" d="M323.5 294.32a22.35 22.35 0 0 0-2.41 3.3h-18.31a42.6 42.6 0 0 0-7.43-15.07 13.25 13.25 0 0 1 5-1.08c9.18 0 13.4 9.83 23.15 12.85z"/><path class="cls-13" d="M349.66 297.62a9.88 9.88 0 0 1 .13 1.57c0 11.31-7.42 12.16-14.15 12.16h-51c-3.11-.59-13.74-1.29-15.22-13.73h80.21z"/><path class="cls-4" d="M349.66 297.62h-28.57a22.35 22.35 0 0 1 2.41-3.3 21.84 21.84 0 0 1 7.36-5.54 21.37 21.37 0 0 1 9-1.91h1c3.64 3.29 8.02 5.89 8.8 10.75z"/><path class="cls-21" d="M340.84 286.89h-1a21.37 21.37 0 0 0-9 1.91c-13.6-1-15-16.17-30.31-15.55a20.55 20.55 0 0 0-10.93 3.61 28.37 28.37 0 0 0-10.89-5.24c1-1.64 1.61-2.65 1.64-2.71h59.44c-.46.75-4.17 6.25-4.17 7.93.02 4.62 2.38 7.53 5.22 10.05z"/><path class="cls-6" d="M330.86 288.78a21.84 21.84 0 0 0-7.36 5.54c-9.75-3-14-12.85-23.13-12.85a13.25 13.25 0 0 0-5 1.08 32.57 32.57 0 0 0-5.73-5.71 20.55 20.55 0 0 1 10.93-3.61c15.27-.62 16.69 14.59 30.29 15.55z"/><path class="cls-4" d="M302.78 297.62h-33.33a23.78 23.78 0 0 1-.17-3c0-6.36 6.36-17.81 9.45-23a28.37 28.37 0 0 1 10.89 5.24 32.57 32.57 0 0 1 5.73 5.71 42.6 42.6 0 0 1 7.43 15.05z"/><path class="cls-2" d="M323.29 77.56c6.49 5.18 16.89 6.6 24.75 6.6a51.6 51.6 0 0 0 5.95-.34 20.21 20.21 0 0 0-5-7.7h-65.6a11.08 11.08 0 0 1-2.48 4.3c-7.16 7.08-19 4.28-26.11 16.52-5.06 8.64-.36 19.61-6.62 27.93-2.76 3.67-9.56 7.56-15.6 13.57a36.42 36.42 0 0 0-9.69 15.46 34.7 34.7 0 0 0-1.42 10c0 8.74 2.71 16.87 8 22.09a20.08 20.08 0 0 0 4.86 3.56l.45.15c.35-1.1.75-2.18 1.19-3.27 5.89-14.59 18.58-27.84 38.32-34.27a78.88 78.88 0 0 1 5.2-1.5c9.05-2.44 14.22-7.86 15.64-14.69a26.61 26.61 0 0 0 18 6.73 36.11 36.11 0 0 0 10.42-1.65L321 118.89c-.52 0-1.05.06-1.57.06-6.87 0-16.53-4.79-16.53-13.47 0-13.69 16.81-17.56 20.39-27.92zm-36 37.85a32.28 32.28 0 0 0 .71 6.82c-9.24-1.91-12.1-7.91-12.1-14.71a14.4 14.4 0 0 1 14.35-14.61 9.51 9.51 0 0 1 3.78.85l.91.57c-4.26 6.3-7.61 13.53-7.61 21.08z"/><path class="cls-2" d="M349.67 89.39a30.48 30.48 0 0 0 5.66-.51c-.15-.84-.31-1.65-.51-2.43a25.27 25.27 0 0 0-.83-2.63 20.21 20.21 0 0 0-5-7.7h-27.21c5.15 9.2 17.86 13.27 27.89 13.27z"/><path class="cls-18" d="M296 138.85a1.1 1.1 0 0 1-.74-.28c-5.63-5.06-8.73-12.6-8.73-21.22 0-10.52 4.47-21.2 11.66-27.87a1.1 1.1 0 1 1 1.49 1.61c-6.76 6.27-10.95 16.33-10.95 26.26 0 8 2.84 15 8 19.59a1.09 1.09 0 0 1 .08 1.55 1.07 1.07 0 0 1-.81.36z"/><path class="cls-8" d="M336 277.43h-13.76a1.1 1.1 0 1 1 0-2.19H336a1.1 1.1 0 1 1 0 2.19zM337.38 282.72h-11.53a1.1 1.1 0 1 1 0-2.19h11.53a1.1 1.1 0 1 1 0 2.19z"/><path class="cls-20" d="M362.51 248.9a46.18 46.18 0 0 1-15.66 7.82c4.27-8.71 7.37-18.29 7.37-27.88 0-10.43-3.69-20.54-10.81-26.63a39.35 39.35 0 0 1 3.71-2.29 36.75 36.75 0 0 1 9.5-3.67 38 38 0 0 1 8.81-1h1.07v73.62h-12.68a67 67 0 0 1 8.69-19.97z"/><path class="cls-5" d="M281.3 266.85a1.08 1.08 0 0 1-.55-.15 1.1 1.1 0 0 1-.39-1.5c7.85-13.38 20.72-22.68 31.35-22.68h.16a1.09 1.09 0 0 1 1.08 1.11 1.12 1.12 0 0 1-1.1 1.09h-.14c-11 0-23.14 10.83-29.46 21.59a1.11 1.11 0 0 1-.95.54z"/><path class="cls-2" d="M334 107.25h-.26a1.09 1.09 0 0 1-.8-1.32c1.35-5.59 6-11 11.53-10.37 4.07.47 6.6 4.22 6.77 10a1.1 1.1 0 0 1-1.06 1.13 1.09 1.09 0 0 1-1.09-1.07c-.14-4.69-1.9-7.57-4.83-7.9-3.36-.38-7.71 2.76-9.15 8.69a1.09 1.09 0 0 1-1.11.84z"/><path class="cls-20" d="M348.16 83.74a24 24 0 0 1-11-2.59 1.1 1.1 0 1 1 1-2 22.48 22.48 0 0 0 13.19 2.15c.58-.07 1.17-.16 1.76-.27a1.1 1.1 0 1 1 .4 2.16c-.63.11-1.27.21-1.89.29a29.06 29.06 0 0 1-3.46.26zM268.06 158.77A1.11 1.11 0 0 1 267 158c-2.51-9.4-.77-18.88 4.67-25.37a1.08 1.08 0 0 1 1.54-.14 1.1 1.1 0 0 1 .14 1.55c-5 5.94-6.56 14.69-4.23 23.39a1.09 1.09 0 0 1-.77 1.34 1 1 0 0 1-.29 0zM255.64 164a1.1 1.1 0 0 1-1-.77 42.91 42.91 0 0 1-2-12.87 41.05 41.05 0 0 1 5.48-20.73 32.11 32.11 0 0 1 8.43-9.62 1.1 1.1 0 0 1 1.31 1.76 30 30 0 0 0-7.85 9 38.87 38.87 0 0 0-5.17 19.62 40.43 40.43 0 0 0 1.86 12.21 1.11 1.11 0 0 1-.7 1.4 1.26 1.26 0 0 1-.36 0zM245 172.47a1.11 1.11 0 0 1-1-.61 42 42 0 0 1-4.39-18.67 39.49 39.49 0 0 1 4.61-18.67 1.1 1.1 0 0 1 1.93 1 37.41 37.41 0 0 0-4.35 17.63 39.67 39.67 0 0 0 4.2 17.73 1.09 1.09 0 0 1-.5 1.47 1 1 0 0 1-.5.12z"/><path class="cls-13" d="M275.62 185.63l-39.65.83c5.89-14.59 18.58-27.84 38.32-34.27 2.47 4.54 6.43 9.29 13.77 9.29 6.73 0 9.9-4.7 12.06-10.62 2 5.72 5.88 10.1 11.58 10.1a9.35 9.35 0 0 0 1.37-.11 15.41 15.41 0 0 0 8.75-4.51 28.45 28.45 0 0 0 11.06 2h.53l3 9.15 10.7 32.47a39.35 39.35 0 0 0-3.71 2.29 24.44 24.44 0 0 0-16.26-5.81 41.46 41.46 0 0 0-6.9.6 10 10 0 0 0-.62-1.28 8.22 8.22 0 0 0 5.25-7.55 7.39 7.39 0 0 0-1.86-4.93 16.18 16.18 0 0 1 3.28-.29h1.39c5.94 0 8.84-3.36 8.84-6.44 0-5.79-8.06-6.06-13.78-6.06h-2.92a8.65 8.65 0 0 0 .23-1.95 6.91 6.91 0 0 0-.74-3.16 4.76 4.76 0 0 0-4.49-2.7c-4.31 0-8 3.41-11.35 7.33a36.93 36.93 0 0 0-3 4.29 67.31 67.31 0 0 0-27.13 18c.76-2.23 1.55-4.44 2.28-6.67z"/><path class="cls-22" d="M236.08 186.46l39.25.3 5-15.07h-35.51a56 56 0 0 0-8.82 14.77"/><path class="cls-22" d="M275.13 187a1.1 1.1 0 0 1-.4-.08 1.08 1.08 0 0 1-.62-1.42c2.53-6.44 5-13.32 5.46-20.5a1.08 1.08 0 0 1 1.16-1 1.09 1.09 0 0 1 1 1.16c-.44 7.5-3 14.57-5.61 21.17a1.1 1.1 0 0 1-.99.67zM300.07 170a1.09 1.09 0 0 1-1.1-1.09v-17.47a1.1 1.1 0 0 1 2.2 0v17.49a1.1 1.1 0 0 1-1.1 1.07z"/><path class="cls-13" d="M325.58 189.76h-.07a1.1 1.1 0 0 1-1-1.17 5.84 5.84 0 0 0-1.75-4.75 10.11 10.11 0 0 0-7.78-2.35 1.09 1.09 0 1 1-.2-2.18 12.3 12.3 0 0 1 9.51 3 8 8 0 0 1 2.41 6.46 1.1 1.1 0 0 1-1.12.99zM320.62 196.88a1.11 1.11 0 0 1-1-.57c-1.73-3.24-6.13-4-9.49-3.36a1.1 1.1 0 1 1-.42-2.15c5.92-1.15 10.22 1.42 11.85 4.47a1.09 1.09 0 0 1-.45 1.48 1.06 1.06 0 0 1-.49.13z"/><path class="cls-7" d="M280.28 281.51c2.25 4.32 2.77 8.23 1.11 11.15v.07c-4.67 8-24.09 5.46-43.44-5.67s-31.31-26.71-26.69-34.74a9.43 9.43 0 0 1 .56-.84c5-6.32 20.77-4.68 37.54 3.63 1.78.88 3.56 1.84 5.34 2.86a95.11 95.11 0 0 1 9.06 5.92 80.93 80.93 0 0 1 7 5.79 46.22 46.22 0 0 1 9.52 11.83z"/><path class="cls-26" d="M281.36 292.73l-4.72 8.18-3.14 5.46c-2.42 4.2-8.89 5.51-17.29 4.21-7.66-1.18-16.92-4.54-26.16-9.86a97.951 97.951 0 0 1-5.32-3.29c-16.17-10.75-25.56-24.18-21.37-31.45l7.87-13.66c-4.62 8 7.33 23.58 26.69 34.74s38.77 13.67 43.44 5.67z"/><g clip-path="url(#clip-path-4)"><path class="cls-28" d="M249.28 319.55l15.86-26.81c3.09-4.55 15.9-12.65 23.3-10.81 5.36 1.34 6.06 7.75 4.77 12.68C289.4 309.15 267 324 250.75 320c-.5-.15-.99-.29-1.47-.45z"/><path class="cls-29" d="M259.11 312.53l9.16-16.31c1.78-2.77 9.09-7.75 13.27-6.68 3 .77 3.39 4.64 2.62 7.63-2.25 8.81-15.06 17.95-24.22 15.61z"/><path class="cls-28" d="M207.52 284.11l9.7-17.28c-1.85-3.24-.15-18-5-19.23-3.16-.81-11.31 5.59-13.74 15.11-3 11.66 3.93 21.86 6.63 22.55a2.24 2.24 0 0 0 2.41-1.15z"/><path class="cls-29" d="M247.52 313.57a1.06 1.06 0 0 1-.54-.14 1.11 1.11 0 0 1-.42-1.49l11.07-19.71a1.1 1.1 0 1 1 1.91 1.08L248.48 313a1.1 1.1 0 0 1-.96.57z"/><path class="cls-28" d="M243.21 312.15a1.17 1.17 0 0 1-.54-.14 1.11 1.11 0 0 1-.42-1.5l11.07-19.7a1.09 1.09 0 0 1 1.91 1.07l-11.06 19.71a1.1 1.1 0 0 1-.96.56zM225.21 305.77a1.06 1.06 0 0 1-.54-.14 1.11 1.11 0 0 1-.42-1.49l11.07-19.71a1.1 1.1 0 1 1 1.91 1.08l-11.06 19.7a1.1 1.1 0 0 1-.96.56zM215.75 297.07a1 1 0 0 1-.54-.15 1.09 1.09 0 0 1-.42-1.49l11.06-19.7a1.1 1.1 0 0 1 1.5-.42 1.09 1.09 0 0 1 .42 1.49l-11.07 19.7a1.09 1.09 0 0 1-.95.57zM212.31 294.09a1 1 0 0 1-.53-.14 1.09 1.09 0 0 1-.42-1.49l11.06-19.71a1.1 1.1 0 1 1 1.92 1.08l-11.07 19.7a1.09 1.09 0 0 1-.96.56zM208.62 291.22a1.17 1.17 0 0 1-.54-.14 1.11 1.11 0 0 1-.41-1.5l11.06-19.7a1.09 1.09 0 0 1 1.91 1.07l-11.06 19.71a1.09 1.09 0 0 1-.96.56z"/></g><path class="cls-26" d="M244.24 273.24a24.05 24.05 0 0 1-12-3.91c-4-2.53-6.39-5.51-6.37-8a3.49 3.49 0 0 1 1.75-3c3.23-2 9.68-.37 14.39 2.21a1.1 1.1 0 0 1-1.06 1.93c-5.23-2.87-10.3-3.4-12.18-2.26a1.24 1.24 0 0 0-.7 1.13c0 1.36 1.64 3.79 5.34 6.12 5.42 3.42 11.35 4.32 13.48 3a1.13 1.13 0 0 1 1.54.34 1.08 1.08 0 0 1-.33 1.5h-.07a7.39 7.39 0 0 1-3.79.94z"/><path class="cls-26" d="M263.5 285.42a23.87 23.87 0 0 1-10.59-3.08 1.11 1.11 0 0 1-.43-1.5 1.1 1.1 0 0 1 1.49-.43c5.23 2.87 10.3 3.41 12.19 2.26a1.25 1.25 0 0 0 .69-1.13c0-1.36-1.63-3.79-5.34-6.12-5.42-3.42-11.35-4.32-13.48-3a1.12 1.12 0 0 1-1.53-.33 1.07 1.07 0 0 1 .31-1.5l.08-.05c3.13-1.91 10.07-.57 15.79 3 4 2.53 6.39 5.52 6.37 8a3.47 3.47 0 0 1-1.75 3 7.35 7.35 0 0 1-3.8.88z"/><path class="cls-26" d="M273.2 288.47a1 1 0 0 1-.58-.17l-50-31.51a1.09 1.09 0 1 1 1.17-1.85l50 31.51a1.09 1.09 0 0 1-.59 2z"/><path class="cls-20" d="M318.26 133c-10.8 0-18.63-7.13-20.44-18.62a1.09 1.09 0 0 1 .91-1.25 1.1 1.1 0 0 1 1.27.87c1.63 10.34 8.63 16.77 18.27 16.77a22.93 22.93 0 0 0 4.39-.44 1.1 1.1 0 1 1 .42 2.15 24.9 24.9 0 0 1-4.82.52z"/><path class="cls-15" d="M414 87.28c-3.06-6.81-7.46-13.18-7.46-20.55a18.58 18.58 0 0 1 .29-3.28 17.25 17.25 0 0 1 32.8-3.78l8.78 20.27-.73.31-30.83 13.63z"/><path class="cls-13" d="M30.09 311a4.38 4.38 0 0 1-4-4.6 45.87 45.87 0 0 1 5.19-19.12c3.24-6.12 8.05-11.41 13.13-16.26 2.4-2.29 4.56-4.33 6.56-6.29a82.76 82.76 0 0 0 16.09-20.62 60.85 60.85 0 0 1 6.3 5.27c-.31.68-.63 1.33-.94 1.91-11.87 22.48-26.33 25.95-35 42.39-.08.14-.15.28-.22.43a36.43 36.43 0 0 0-4.07 17h-.58c-.82-.06-1.63-.11-2.46-.11z"/><path class="cls-30" d="M41.75 306.34A11.47 11.47 0 0 1 33.1 311a36.43 36.43 0 0 1 4.07-17 18.28 18.28 0 0 1 2.22 1.83 21 21 0 0 1 4.81 7.38c-.89 1.08-1.71 2.12-2.45 3.13z"/><path class="cls-16" d="M44.2 303.27a21 21 0 0 0-4.81-7.38 18.28 18.28 0 0 0-2.22-1.83c.07-.15.14-.29.22-.43 8.69-16.44 23.15-19.91 35-42.39.31-.58.63-1.23.94-1.91 5.92 5.55 11.24 11.8 18.35 15.55a26.82 26.82 0 0 0 3.13 1.43l-1.61 3c-6.42-1.89-16.34-3.63-18.06-.37-1.84 3.47 5.16 9.81 10.71 14.27l-2.28 4.32c-11-5-27.31-6.82-33.56 5a20.15 20.15 0 0 0-2.14 7 37.79 37.79 0 0 0-3.67 3.74z"/><path class="cls-31" d="M47.89 299.58a20.15 20.15 0 0 1 2.14-7c6.25-11.82 22.55-10 33.56-5l-4.17 7.9c-14.69-5.66-24.73-1.77-31.53 4.1z"/><path class="cls-30" d="M93.22 269.35l-7.35 13.9c-5.55-4.46-12.55-10.8-10.71-14.27 1.72-3.26 11.64-1.52 18.06.37z"/><path class="cls-15" d="M51 264.68l-6.34-3.35c.65-1.35 1.3-2.63 2-3.87a73.47 73.47 0 0 1 12.69-17.69 33.86 33.86 0 0 1 3.46 1.6 36.05 36.05 0 0 1 4.33 2.69A82.76 82.76 0 0 1 51 264.68z"/><path class="cls-3" d="M414.13 69.08c0-.31 0-.62.05-.93l-7.49-1-29-3.78L200.07 41l-1.74 13.22L231 58.43l-28.88 41.78h.72c4.43 0 8.48 1.85 12.09 4.94l5-7.19 25.91-37.5c-1.61-.78 166.45 20.93 166.45 20.93l9 1.16.61-4.67a8.82 8.82 0 0 1-7.77-8.8z"/><path class="cls-21" d="M247.59 50.64a8.69 8.69 0 0 0-3.68.8 8.82 8.82 0 0 0-5.15 7.56v.53a8.84 8.84 0 0 0 17.5 1.74 8.35 8.35 0 0 0 .18-1.74 8.84 8.84 0 0 0-8.85-8.89z"/><path class="cls-7" d="M170.87 190.52c0 4.23-2 9.21-7.11 12.92l2.24 8.46c-16 1.8-24.55 10.87-28.62 18.21a52.12 52.12 0 0 0-7.75-1.68l3-4.32L164 178.7a14.16 14.16 0 0 1 6.87 11.82z"/><path class="cls-30" d="M176.06 226.06c-6-4 .81-6.9-8.5-6.9-2.06 0 .28-7.47-1.56-7.26l-2.24-8.46c5.07-3.71 7.11-8.69 7.11-12.92A14.16 14.16 0 0 0 164 178.7l6.79-9.83a59 59 0 0 1 11.6 14.4c7.58-18.19 10.7-25.44 12-29.37h41s3.39 51.95-59.33 72.16z"/><g clip-path="url(#clip-path-5)"><path class="cls-31" d="M244.66 155.09c-4.63 4.87-9.41 6.4-14.15 6.4-7.92 0-15.72-4.26-22.52-4.26-4.31 0-9.45 2-9.48 7 0 4 3.58 4.7 7.75 4.7 2.41 0 5-.25 7.24-.25s5.19.16 5.19 2.32c0 1.59-1.25 3.84-1.25 5.73 0 2.86 21.4 8.17 21.92 8.17 2.76 0 6.89-3.13 6.89-8.35 0-6-4-13.41-4-17.53a3 3 0 0 1 .89-2.41M155.83 185.62c-3.45-1.74-4.83-5-4.83-8.68 0-11.72 9.11-21.57 23.92-21.57s9.15 9.63 15.59 14.27c3.39 2.44 10.76.32 10.76 6.58 0 .92-.12 1.86-.12 2.76 0 6.25 15.16 4.51 15.16 10.7 0 2.07-3.12 5.52-6.46 5.52-4.93 0-10-6.08-14.94-6.08-2 0-4.33 1-4.33 3.39 0 1.9 1.18 4.25 1.18 6.42 0 3.72-4.36 5.4-7.53 5.4a8.49 8.49 0 0 1-3.31-.64c-9.61-4.05-15.41-13.2-25.09-18.07zM222.72 201.34a11.88 11.88 0 0 1-6.4 1.84c-4.84 0-9.33-2.63-13.72-2.63-5.13 0-9.83 4.49-9.83 9.5 0 6.39 7 12.73 14.55 12.73 12.26 0 11.79-12.21 15.4-21.44z"/></g><circle class="cls-7" cx="155.3" cy="190.51" r="15.52"/><path class="cls-4" d="M155.79 267.23a50 50 0 0 1-.32 5.62h49.18c-2.17-55.69-31.52-89.13-73.78-42.54 10.52 3.35 18.46 10.4 22.32 21a46.3 46.3 0 0 1 2.6 15.92z"/><path class="cls-6" d="M123.21 308.57a3.86 3.86 0 0 0-3.85-3.85H57a3.85 3.85 0 0 0 0 7.7h62.37a3.85 3.85 0 0 0 3.84-3.85z"/><path class="cls-2" d="M430.61 120.38a17.15 17.15 0 0 1-5.2-6.72l-2.14-5-6.42-14.82 30.82-13.63.73-.31 4.82 11.14 3.84 8.88a17.23 17.23 0 0 1-26.45 20.42z"/><path class="cls-8" d="M423.9 57.71a10.14 10.14 0 1 1 0 20.27 8.8 8.8 0 0 1-1.36-.1 10.13 10.13 0 0 1-8.77-10 9.28 9.28 0 0 1 .06-1.06 10.12 10.12 0 0 1 10.07-9.11z"/><path class="cls-22" d="M222.61 98.67c2.5 1.41 3.3 3.71 3.3 6.33 0 3.81-1.51 7.64-2.17 11.4a42.2 42.2 0 0 0-8.86-11.28l5-7.19h.12a5.39 5.39 0 0 1 2.61.74z"/><path class="cls-13" d="M186.25 123.56a6.67 6.67 0 0 1-1.21-4c0-4.16 3.81-8.1 8.29-8.82a9.07 9.07 0 0 1-.07-1.19 9.43 9.43 0 0 1 8.81-9.35h.72c5.76 0 32.62 4.79 32.62 53.72h-41a14.61 14.61 0 0 0 .87-5.33c0-4.34-2.14-6.54-4.77-8.14-4.08-2.5-9.3-3.55-9.3-9a9 9 0 0 1 .06-1 8.68 8.68 0 0 1 4.98-6.89z"/><path class="cls-3" d="M158.88 162.67l22.35-32.33a9 9 0 0 0-.06 1c0 5.49 5.22 6.54 9.3 9l-19.67 28.53-6.8 9.83-31.4 45.41-.77-.53a10 10 0 0 0 1.62-5.43 5.79 5.79 0 0 0-1-3.3 10.3 10.3 0 0 0 4.52-8.07 7.18 7.18 0 0 0-1.65-4.66 11.49 11.49 0 0 0 1.24-4.89 7.46 7.46 0 0 0-.26-2z"/><path class="cls-14" d="M163.31 144.6a26.48 26.48 0 0 1-14.81 4.4 25.25 25.25 0 0 1-5.9-.68 20.89 20.89 0 0 1-14.3-11h.17a9.06 9.06 0 0 0 9.05-8.36c6.93-2.78 14.31-11.44 14.31-19.65a12.31 12.31 0 0 0-12.43-12.54 12.84 12.84 0 0 0-7.26 2.23V59.12c.11-9.63 4.84-27.11 17-27.11 6.58 0 4.5 5.06 8.19 5.06 2.18 0 4.31-1.24 6.65-1.24 2.51 0 5.65 1.84 5.65 4.57 0 1.51-.76 3-.76 4.3 0 1.58 1.1 2.14 2.71 2.14 1 0 2.14-.15 3.34-.15 4.6 0 6.67 3.23 6.67 6.82 0 15-23.26 10.73-37.54 16.09 18.54 4.7 32.72 25.73 32.72 46.5 0 1.52-.07 3-.21 4.43a36.76 36.76 0 0 1-3.82 13.38 28.27 28.27 0 0 1-9.41 10.69z"/><path class="cls-7" d="M84.88 202.15l21.25 31.25c-9.59 7.31-19.74 19.19-33.9 20h-1.5c-15.93 0-34.54-13.07-34.54-40.62 0-29.8 23.74-53.4 51-53.4h1.93c10.85 10.09 21.8 24.21 38.6 24.21a23.1 23.1 0 0 0 8.68-1.59c8.56-3.42 15.08-11.53 18.57-19.55h.85a17.41 17.41 0 0 1 3.06.27l-22.53 32.58c-1.32-4.93-7.6-7.49-14.37-7.49-9.85-.05-23.63 4.4-37.1 14.34z"/><path class="cls-13" d="M87.15 116H76.86c.09-.68.19-1.37.28-2.05-3.52-.08-4.86-3.32-4.86-5.38 0-2.65 2.41-4.75 5.71-5.46l-.09-.35a15.25 15.25 0 0 0 2.93.3 17.84 17.84 0 0 0 5.85-1.45c4.22-1.91 6.15-5.35 6.15-8.88a11.48 11.48 0 0 0-5.17-9.28A15.12 15.12 0 0 0 79 80.92a17.39 17.39 0 0 0-4.08.46c0-.62 0-1.22.09-1.81h41.32c1.74 12.93 6.81 25.51 15.83 34.33V99a12.84 12.84 0 0 1 7.26-2.24 12.31 12.31 0 0 1 12.44 12.52c0 8.21-7.38 16.87-14.31 19.65v-.72a9.08 9.08 0 1 0-9.25 9.08 20.89 20.89 0 0 0 14.3 11l5.66 15.8a17.75 17.75 0 0 1 6.71-1.73c-3.49 8-10 16.13-18.57 19.55a23.1 23.1 0 0 1-8.65 1.69c-16.8 0-27.75-14.12-38.6-24.21a47.86 47.86 0 0 1 9.1 1.25l3.23-11.17a36.14 36.14 0 0 1-8.91 1.27c-12.18 0-17.12-9.29-17.12-21.31a59.75 59.75 0 0 1 .55-7.63 24.85 24.85 0 0 0 11.15-5.8z"/><path class="cls-7" d="M137.55 128.22v.72a9.06 9.06 0 0 1-9.05 8.36h-.17a9.08 9.08 0 1 1 9.25-9.08z"/><path class="cls-13" d="M132.49 214.85a5.79 5.79 0 0 1 1 3.3 10 10 0 0 1-1.62 5.43c-1.54 2.3-4.38 4.18-9.32 4.18h-3.41a15 15 0 0 0-6.22 1.47 35.45 35.45 0 0 0-6.76 4.21l-21.28-31.29c13.47-9.94 27.25-14.39 37.1-14.39 6.77 0 13 2.56 14.37 7.49a7.46 7.46 0 0 1 .26 2 11.49 11.49 0 0 1-1.24 4.89 7.18 7.18 0 0 1 1.65 4.66 10.3 10.3 0 0 1-4.52 8.07z"/><path class="cls-17" d="M132.14 99v14.9c-9-8.82-14.09-21.4-15.83-34.33a76.82 76.82 0 0 1-.25-18.65h16.08z"/><path class="cls-14" d="M91.13 79.57H75a37.15 37.15 0 0 1 1.41-8c3.48-11.76 11.33-18.09 23.94-18.09 5.86 0 12.65 2.19 15.75 7.16v.29a76.82 76.82 0 0 0 .25 18.65H91.13z"/><path class="cls-23" d="M116.09 60.63c.06.1.12.19.17.29h-.2z"/><path class="cls-2" d="M92.84 92.73c0 3.53-1.93 7-6.15 8.88a9.53 9.53 0 0 1-5.4-8.61 10.88 10.88 0 0 1 6.38-9.52 11.48 11.48 0 0 1 5.17 9.25z"/><path class="cls-5" d="M86.69 101.6a17.84 17.84 0 0 1-5.85 1.45 15.25 15.25 0 0 1-2.93-.3 81.66 81.66 0 0 1-3-20.14v-1.25a17.39 17.39 0 0 1 4.09-.44 15.12 15.12 0 0 1 8.69 2.53 10.88 10.88 0 0 0-6.4 9.55 9.53 9.53 0 0 0 5.4 8.6zM76.86 116h10.29A24.85 24.85 0 0 1 76 121.8c.28-1.93.58-3.8.86-5.8z"/><path class="cls-17" d="M72.23 253.39c14.16-.79 24.31-12.67 33.9-20a35.45 35.45 0 0 1 6.76-4.21l-25.38 36.7c-2.3-6-7.3-11.89-14.28-11.89h-1z"/><path class="cls-3" d="M137.31 205a1.11 1.11 0 0 1-1-.72c-1.78-4.92-8.08-4.67-11.52-3.75a1.1 1.1 0 0 1-.57-2.12c5.59-1.49 12.13-.49 14.16 5.12a1.1 1.1 0 0 1-.66 1.41 1.19 1.19 0 0 1-.41.06zM133.93 217.15a1.1 1.1 0 0 1-1-.72c-1.78-4.92-8.08-4.67-11.52-3.75a1.1 1.1 0 1 1-.57-2.12c5.58-1.5 12.12-.5 14.15 5.12a1.1 1.1 0 0 1-.66 1.41 1.15 1.15 0 0 1-.4.06z"/><path class="cls-22" d="M101.26 151.41a1.11 1.11 0 0 1-1.08-.88 1.1 1.1 0 0 1 .86-1.29l.93-.2c1-.22 8-2.89 11.24-6.6a1.1 1.1 0 1 1 1.65 1.44c-3.59 4.13-11.16 7-12.43 7.31l-1 .2z"/><path class="cls-24" d="M161.26 145.8c-6.6 0-14.52-3.67-18.43-8.53a1.1 1.1 0 0 1 1.71-1.38c3.54 4.4 10.72 7.71 16.72 7.71.62 0 1.27 0 2-.09a1.09 1.09 0 0 1 1.19 1 1.11 1.11 0 0 1-1 1.2c-.79.05-1.45.09-2.19.09zM172.74 135h-.06c-10-.46-17-4.48-21.64-12.31a1.1 1.1 0 0 1 1.89-1.11c4.21 7.13 10.7 10.81 19.85 11.22a1.1 1.1 0 0 1 0 2.2zM176.55 121.63h-.07a17.61 17.61 0 0 1-11.55-5.19 1.1 1.1 0 0 1 0-1.56 1.09 1.09 0 0 1 1.55 0 15.51 15.51 0 0 0 10.15 4.57 1.09 1.09 0 0 1 1 1.16 1.1 1.1 0 0 1-1.08 1.02zM91.13 80.66a1.1 1.1 0 0 1-1.07-.85 13.9 13.9 0 0 1-.32-3.07c0-7.08 4.68-15 11.31-14.63a1.1 1.1 0 0 1-.12 2.19h-.31c-5 0-8.69 6.56-8.69 12.44a12 12 0 0 0 .27 2.59 1.1 1.1 0 0 1-.83 1.31 1 1 0 0 1-.24.02zM102.52 80.66a1.09 1.09 0 0 1-1.08-.89 11.79 11.79 0 0 1-.2-2.12 9.28 9.28 0 0 1 3.38-7.35A1.1 1.1 0 1 1 106 72a7.1 7.1 0 0 0-2.57 5.65 9.26 9.26 0 0 0 .16 1.72 1.1 1.1 0 0 1-.88 1.28z"/><path class="cls-17" d="M154.55 257a1.1 1.1 0 0 1-1-1.59 42.75 42.75 0 0 1 10.75-13.73c5.46-4.48 11.46-6.66 17.84-6.47a1.1 1.1 0 0 1-.07 2.2c-12.36-.39-21.87 9.62-26.55 19a1.1 1.1 0 0 1-.97.59z"/><path class="cls-17" d="M176.88 243a1.1 1.1 0 0 1-.32-2.15 24.3 24.3 0 0 1 4.49-.9 1.1 1.1 0 1 1 .23 2.18 22.35 22.35 0 0 0-4.08.82.93.93 0 0 1-.32.05zM167.26 248.38a1.07 1.07 0 0 1-.82-.37 1.09 1.09 0 0 1 .1-1.55 28 28 0 0 1 4-3 1.1 1.1 0 0 1 1.13 1.88 26.3 26.3 0 0 0-3.72 2.73 1.08 1.08 0 0 1-.69.31z"/><path class="cls-22" d="M93.67 125.25a1.06 1.06 0 0 1-.34-.06 10.18 10.18 0 0 1-7.23-9.63 9.14 9.14 0 0 1 5.79-8.49 1.1 1.1 0 1 1 .88 2 6.93 6.93 0 0 0-4.47 6.48 8 8 0 0 0 5.7 7.55 1.1 1.1 0 0 1-.34 2.15zM202 116.19a1.1 1.1 0 0 1-.89-.45c-1.92-2.62-4.36-4-7.07-4h-.66a1.1 1.1 0 0 1-.18-2.19h.84c2.4 0 5.88.85 8.84 4.9a1.1 1.1 0 0 1-.24 1.54 1.09 1.09 0 0 1-.64.2z"/><path class="cls-2" d="M377.68 64.45a1.1 1.1 0 0 1-.17-2.19 17.16 17.16 0 0 0 3.14-.8c6-2.24 8.61-5.78 8.61-11.81v-1.77-1.79a13.1 13.1 0 0 1 4.07-9.87 13.26 13.26 0 0 1 9-3.48c8.61 0 10.3 7 11.8 13.16.42 1.73.85 3.51 1.41 5.14a1.1 1.1 0 1 1-2.08.72c-.59-1.73-1-3.57-1.47-5.34-1.49-6.16-2.78-11.48-9.66-11.48-5.38 0-10.84 3.83-10.84 11.15v3.56c0 6.92-3.19 11.32-10 13.86a18.45 18.45 0 0 1-3.55.92z"/><path class="cls-22" d="M136.4 183.07a1.1 1.1 0 0 1-1-.55c-2-3.58-4.87-6.18-9.38-9.71a1.1 1.1 0 1 1 1.35-1.73c3.85 3 7.5 6.07 9.93 10.35a1.1 1.1 0 0 1-.41 1.5 1.06 1.06 0 0 1-.49.14zM195.92 130.87a1.1 1.1 0 0 1-1-.58c-2.26-4.17-5.66-6.53-8.56-5.84a1.1 1.1 0 1 1-.51-2.13 6.8 6.8 0 0 1 1.56-.19c3.5 0 7 2.66 9.44 7.11a1.09 1.09 0 0 1-.44 1.49 1.07 1.07 0 0 1-.49.14z"/><circle class="cls-22" cx="96.78" cy="114.94" r=".9"/><circle class="cls-22" cx="101.92" cy="118.58" r=".9"/><circle class="cls-22" cx="102.38" cy="112.88" r=".9"/><path class="cls-3" d="M132.61 224.11l-3 4.32-27.88 40.31-19 27.5-11.08 16-11-7.59 3.35-4.77 23.5-34 25.38-36.7a15 15 0 0 1 6.22-1.47h3.41c4.94 0 7.78-1.88 9.32-4.18z"/><path class="cls-31" d="M89.15 159.45h-1.93c-27.29 0-51 23.6-51 53.4 0 27.55 18.61 40.62 34.54 40.62h1.5c14.16-.79 24.31-12.67 33.9-20l-21.28-31.32a80.26 80.26 0 0 1 21.69-11.55c-.08-6.08.98-23.24-17.42-31.15z"/><g clip-path="url(#clip-path-6)"><path class="cls-30" d="M68.8 149.8a16.62 16.62 0 0 0-2 6.95c0 10.56 21.55 3.6 21.55 11.12 0 3.4-4.8 6.68-4.8 10.08 0 6.11 12.39 4.33 12.39 10.92 0 3.95-3 5.4-6.91 5.4-12.71 0-11.5-14.2-20-14.2-4.32 0-9.84 3.25-14.74 3.25-7.38 0-10-9-10-12.84-.08-12.04 20.8-11.74 24.51-20.68z"/><path class="cls-30" d="M113.23 182.53c-.78-9.06-4.91-12.13-9.13-12.13-4.92 0-10 4.19-10 7.88 0 4.45 6.88 5.51 11.35 5.51a38 38 0 0 0 7.78-1.26zM83.41 203.8v.47c-.9.65-4.13 4-5.31 4 0 0-7.39-9.81-10-11.22.56-2.51 3.8-3.64 6.41-3.64 4.61 0 9 4.47 9 9.43-.05.35-.07.66-.1.96z"/><path class="cls-30" d="M56.42 199.49c-7-5.8-5.63-14.75-13.35-14.75a8.62 8.62 0 0 0-5.42 2.17c-7.78 6.38-20.31 15.33-21.58 31.39-.65 8.35 3.37 19.65 11 20.25 1.25.1 4.49-10.83 16.12-9.91 6.74.53 14 5.69 21.08 6.25 11.91.94 16.67-10.13 24.64-9.51 2.16.17 3.83 1.1 5.87 1.27 2.76.21 7.33-1.66 7.54-4.26.11-1.5-.8-2.71-3.13-2.9s-5.34.56-7.14.42c-4.68-.37-5.65-6.89-13.59-7.52-3.71-.29-7.38.66-11 .38-5-.4-7.63-3.49-8.19-6.92s-1.66-5.36-2.85-6.36zM61 223.7c-3.11 0-5.51-5-9-5-1.3 0-2.58.46-3.84.45-5.47 0-3-7.17-4.9-10a6.76 6.76 0 0 1-1.21-3.73c0-2.43 1.59-4.33 3.89-4.33 7.19 0 6 10.11 9.17 13.72 2.28 2.58 8.31 2.35 8.3 6.72A2.18 2.18 0 0 1 61 223.7zM40.32 240a5.81 5.81 0 0 1 5.68-4.06c4.85 0 7.91 5.19 12.75 5.19 3.2 0 10.95-4 16.61-4 3.55 0 5.09 2 5.09 3.51 0 4.17-15.36.9-15.36 5 0 2.41 2.73 2.92 5.12 2.92 5.39 0 13.63-2.38 17.13-2.38 2.67 0 4.87 2.09 4.87 4 0 5.52-14 5.72-20.45 5.72-23.54.1-25.32-10.18-31.44-15.9zM106.7 228.12c-6.57 3.09-18.81 1.38-18.81 9.21 0 4.87 10.44 5.79 11.61 5.79 5.19 0 9.25-8.71 9.25-11 0-1.45-1.19-2.69-2.05-4z"/></g><path class="cls-30" d="M76.32 211.21a1.11 1.11 0 0 1-.81-.36 1.09 1.09 0 0 1 .07-1.55 94.61 94.61 0 0 1 8.76-7.09 1.1 1.1 0 0 1 1.27 1.79 93.05 93.05 0 0 0-8.55 6.92 1.12 1.12 0 0 1-.74.29z"/><path class="cls-30" d="M78 209.55a1.12 1.12 0 0 1-1-.64c-2.89-6.38-9.73-13.44-17.18-14.61a1.09 1.09 0 1 1 .34-2.16c8.22 1.28 15.7 9 18.84 15.86a1.09 1.09 0 0 1-.54 1.45 1.06 1.06 0 0 1-.46.1z"/><path class="cls-13" d="M238.57 300.62a4.5 4.5 0 0 1-2.5 6 55.25 55.25 0 0 1-22 4.61c-7.87 0-11.37-1.9-19-4.25-3.57-1.12-6.78-2.13-9.82-3-9.57-2.85-17.38-4.6-29.29-4.86a62.52 62.52 0 0 1 1.95-8.52c.86 0 1.67-.07 2.43-.07 28.92 0 35.72 11.83 56.87 11.83h.55a44 44 0 0 0 19.24-4.59c.11.17.22.35.32.53.48.7.88 1.51 1.25 2.32z"/><path class="cls-30" d="M227.75 292a13.11 13.11 0 0 1 9.31 5.78 44 44 0 0 1-19.24 4.59 18.62 18.62 0 0 1 .66-3 21.92 21.92 0 0 1 4.87-8.16c1.5.32 2.98.57 4.4.79z"/><path class="cls-16" d="M217.67 289.57a24.18 24.18 0 0 1-8.19 1.46c-13.54 0-16.09-12.81-18-24.67h-7c-1.61 6.39-4 12.81-7.68 12.81-3.38 0-6.33-6.61-8.13-12.81h-4.79c-.17 8.28-3.51 16.15-5.89 24.23.86 0 1.67-.07 2.43-.07 28.92 0 35.72 11.83 56.87 11.83h.55a18.62 18.62 0 0 1 .66-3 21.92 21.92 0 0 1 4.87-8.16 44.66 44.66 0 0 1-5.7-1.62z"/><path class="cls-31" d="M204.29 266.36h-12.82c1.92 11.86 4.47 24.67 18 24.67a24.18 24.18 0 0 0 8.19-1.46c-8.66-3.15-12.13-11.87-13.37-23.21z"/><path class="cls-30" d="M168.65 266.36c1.8 6.2 4.75 12.81 8.13 12.81 3.64 0 6.07-6.42 7.68-12.81z"/><path class="cls-15" d="M185.31 304v7.61c-1.7.05-3.33.08-4.92.08a88.85 88.85 0 0 1-24.54-3.13 34.09 34.09 0 0 1-.24-4 36.94 36.94 0 0 1 .41-5.38c11.91.19 19.72 1.94 29.29 4.82z"/><path class="cls-17" d="M101.75 268.74l27.88-40.31a52.12 52.12 0 0 1 7.75 1.68c11.16 3.37 19.59 10.45 23.69 21.09a44.32 44.32 0 0 1 2.75 16 47.29 47.29 0 0 1-9.42 28.32 43.58 43.58 0 0 1-8.69 8.68 41.17 41.17 0 0 1-24.91 8.21c-14.38 0-28-4.65-38.06-16.17z"/><path class="cls-4" d="M119.72 275a32.17 32.17 0 0 1-17.22-5 1.1 1.1 0 0 1 1.18-1.85 30 30 0 0 0 16 4.65 23.88 23.88 0 0 0 9.7-2l1.59-.57a1.1 1.1 0 0 1 .73 2.07l-1.56.57a26.11 26.11 0 0 1-10.42 2.13zM94.52 300a1.1 1.1 0 0 1-.66-.23 43.69 43.69 0 0 1-5-4.52 1.1 1.1 0 0 1 1.59-1.52 40.27 40.27 0 0 0 4.78 4.3 1.11 1.11 0 0 1 .21 1.54 1.12 1.12 0 0 1-.92.43zM104.89 305.72a1 1 0 0 1-.38-.07 40.15 40.15 0 0 1-7.11-3.44 1.1 1.1 0 0 1 1.15-1.87 38.07 38.07 0 0 0 6.71 3.25 1.1 1.1 0 0 1 .66 1.41 1.12 1.12 0 0 1-1.03.72zM117.45 308.09a40.4 40.4 0 0 1-8.72-1.16 1.1 1.1 0 1 1 .52-2.13 38 38 0 0 0 8.25 1.09 1.1 1.1 0 0 1 0 2.2zM121.06 308a1.1 1.1 0 0 1-.07-2.19 40.1 40.1 0 0 0 7.59-1.26 1.1 1.1 0 1 1 .57 2.12 42.13 42.13 0 0 1-8 1.33zM132.45 305.59a1.12 1.12 0 0 1-1-.72 1.1 1.1 0 0 1 .66-1.41 41.13 41.13 0 0 0 7.2-3.47 1.1 1.1 0 1 1 1.14 1.87 41.78 41.78 0 0 1-7.59 3.66 1 1 0 0 1-.41.07zM143.5 299.51a1.1 1.1 0 0 1-.67-2 39.21 39.21 0 0 0 6.66-6.53 1.1 1.1 0 0 1 1.71 1.37 41 41 0 0 1-7 6.9 1 1 0 0 1-.7.26zM153.2 288.71a1.1 1.1 0 0 1-.94-1.67 38.2 38.2 0 0 0 3.54-7.58 1.1 1.1 0 0 1 2.08.71 40.31 40.31 0 0 1-3.74 8 1.11 1.11 0 0 1-.94.54zM157.94 277.07a1 1 0 0 1-.25 0 1.1 1.1 0 0 1-.83-1.31 41 41 0 0 0 1-7.8 1.1 1.1 0 1 1 2.19.08 42.81 42.81 0 0 1-1.08 8.21 1.09 1.09 0 0 1-1.03.82zM159 265.47a1.09 1.09 0 0 1-1.1-1.05c0-1.15-.14-2.32-.28-3.49a11.64 11.64 0 0 0-.63-2.79 1.1 1.1 0 0 1 .63-1.42 1.11 1.11 0 0 1 1.42.63 13.51 13.51 0 0 1 .76 3.33c.15 1.22.24 2.45.29 3.64a1.1 1.1 0 0 1-1 1.15z"/><path class="cls-22" d="M139.07 119.58a1.06 1.06 0 0 1-.79-.34 1.09 1.09 0 0 1 0-1.55c.21-.21.45-.42.7-.65 1.43-1.3 3-2.76 3-5 0-1.83-1.09-3.73-2.91-3.73a3.17 3.17 0 0 0-1.06.19 1.1 1.1 0 0 1-.71-2.08 5.59 5.59 0 0 1 1.77-.31c3.19 0 5.11 3 5.11 5.93 0 3.21-2.18 5.18-3.76 6.62l-.66.61a1.09 1.09 0 0 1-.69.31z"/><path class="cls-24" d="M156.61 55.63a1.19 1.19 0 0 1-.6-.17 1.11 1.11 0 0 1-.32-1.52c2.63-4.07 7.06-7.43 12.82-9.71a1.1 1.1 0 0 1 1.43.61 1.11 1.11 0 0 1-.62 1.43c-3.72 1.47-8.78 4.21-11.79 8.86a1.1 1.1 0 0 1-.92.5zM146.75 49.86a1.13 1.13 0 0 1-.32 0 1.1 1.1 0 0 1-.73-1.37 23.83 23.83 0 0 1 9.3-12.92 1.11 1.11 0 0 1 1.53.27 1.09 1.09 0 0 1-.27 1.53 21.34 21.34 0 0 0-8.43 11.71 1.11 1.11 0 0 1-1.08.78z"/><path class="cls-9" d="M58.82 294.73a1.1 1.1 0 0 1-1.08-.93 35.51 35.51 0 0 1-.3-5.52 1.1 1.1 0 0 1 2.2 0 34.64 34.64 0 0 0 .27 5.19 1.1 1.1 0 0 1-.93 1.25zM64.46 293.85a1.09 1.09 0 0 1-1.09-1 36.27 36.27 0 0 1-.16-3.92v-1.31a1.1 1.1 0 0 1 2.2 0V289a36.58 36.58 0 0 0 .14 3.69 1.08 1.08 0 0 1-1 1.2zM208.12 284.8a17.66 17.66 0 0 1-6.1-1.1 1.1 1.1 0 0 1 .76-2.06 15.29 15.29 0 0 0 6.92.89 1.1 1.1 0 1 1 .22 2.18q-.92.09-1.8.09zM206.91 279h-.1a16.3 16.3 0 0 1-5.49-1.52 1.1 1.1 0 0 1 1-2 13.81 13.81 0 0 0 4.73 1.31 1.1 1.1 0 0 1-.1 2.19zM205.1 272.86h-.1a20.48 20.48 0 0 1-4.73-1 1.1 1.1 0 1 1 .69-2.09 17.65 17.65 0 0 0 4.2.9 1.1 1.1 0 0 1-.08 2.2z"/><circle class="cls-6" cx="174.65" cy="152.44" r="4.09"/><path class="cls-2" d="M36.58 278a1.12 1.12 0 0 1-.79-.34 34.92 34.92 0 0 1 .76-48.91 33.16 33.16 0 0 1 22.64-9.27c20.58 0 30.36 10.82 39.82 21.29 8.75 9.67 17 18.81 33.4 18.81 12.28 0 25.41-8.52 25.41-32.42 0-5.33-.48-10.94-.94-16.35-.41-4.8-.83-9.75-.9-14.38-.22-14 2.39-24.27 17.8-44.65a1.09 1.09 0 0 1 1.53-.21 1.1 1.1 0 0 1 .22 1.54c-15.12 20-17.57 29.51-17.36 43.29.07 4.55.47 9.25.9 14.22.47 5.46 1 11.12 1 16.54 0 25.52-14.26 34.62-27.61 34.62-17.36 0-26.34-9.94-35-19.54-9.14-10.11-18.59-20.56-38.19-20.56-19 0-30.83 16.62-30.83 32a31.31 31.31 0 0 0 9 22.44 1.1 1.1 0 0 1-.79 1.86z"/><path class="cls-4" d="M349 76.12h-65.61c.62-1.75 1.07-3.66 1.71-5.51a11.78 11.78 0 0 1 9.61-7.81 11.8 11.8 0 0 1 1.46-.09l40.54-.06a16.66 16.66 0 0 1 2.3.15c6.3.91 8.83 5.62 9.68 11.14.11.72.2 1.44.31 2.18z"/><path class="cls-17" d="M310.08 49.26a6.66 6.66 0 0 1-3-5.4c0-4.63 5.28-9.28 11.35-9.28 5.75 0 8.7 3.63 8.7 8.3a8.92 8.92 0 0 1-2.77 6.64c.81-.07 1.57-.11 2.29-.11 7.53 0 10.8 3.92 11.94 9.76a27.07 27.07 0 0 1 .41 3.63 16.66 16.66 0 0 0-2.3-.15l-40.54.06a11.8 11.8 0 0 0-1.46.09 15.91 15.91 0 0 1 3.85-9.07c2.8-3 5.11-4.51 10.1-4.51.47 0 .95.02 1.43.04z"/><path class="cls-8" d="M294.98 66.19h12.45v9.98h-12.45z"/></svg>